<svg xmlns="http://www.w3.org/2000/svg" viewBox="0 0 144.68 144.68"><defs><style>.cls-1{fill:none;stroke:#fff;stroke-linecap:round;stroke-linejoin:round;stroke-width:5px}</style></defs><title>lines</title><g id="Слой_2" data-name="Слой 2"><g id="Layer_5" data-name="Layer 5"><path class="cls-1" d="M2.5 124.15a30.3 30.3 0 0 1 30.3-30.3h.47a30.3 30.3 0 0 0 30.3-30.3v-.47a30.3 30.3 0 0 1 30.3-30.3 30.3 30.3 0 0 0 30.3-30.3"/><path class="cls-1" d="M11.51 133.16a30.3 30.3 0 0 1 30.3-30.3h.47a30.3 30.3 0 0 0 30.3-30.3v-.46a30.3 30.3 0 0 1 30.3-30.3 30.3 30.3 0 0 0 30.3-30.3"/><path class="cls-1" d="M20.52 142.18a30.3 30.3 0 0 1 30.3-30.3h.47a30.3 30.3 0 0 0 30.3-30.3v-.47a30.3 30.3 0 0 1 30.3-30.3 30.3 30.3 0 0 0 30.3-30.3"/></g></g></svg>