<svg xmlns="http://www.w3.org/2000/svg" viewBox="0 0 120.97 133.76"><defs><style>.cls-1{fill:none;stroke:#fff;stroke-linecap:round;stroke-linejoin:round;stroke-width:5px}</style></defs><title>5</title><g id="Слой_2" data-name="Слой 2"><g id="Layer_5" data-name="Layer 5"><path class="cls-1" d="M3.45 92l3.8 4.89a80.4 80.4 0 0 0 13 13.55c9.25 7.39 19.17 7.45 29.52 2.85a22.45 22.45 0 0 0 10.31-8.47c2.93-4.67 1.7-9.23-.57-13.65-2.13-4.14-5.84-5.8-10.31-5.51a53.37 53.37 0 0 0-7.65 1.45c-.9.2-1.74.71-2.64.9a2.81 2.81 0 0 1-1.91-.1A36.16 36.16 0 0 1 25 75a2.63 2.63 0 0 1-.13-.51c.82-.29 1.63-.6 2.46-.87 4.71-1.51 9.34-3.17 13.43-6.06 3.13-2.22 4.75-5.14 4.29-9.07a5.78 5.78 0 0 0-5.35-5.51 16.91 16.91 0 0 0-10.41 2.51c-4.89 2.75-8.74 6.74-12.52 10.79-.6.64-1.21 1.26-2 2.09L2.5 58c1.94-2.31 3.75-4.59 5.71-6.74 4.21-4.63 8.66-9 14.37-11.79 6.25-3 12.71-4.21 19.14-.61 7.87 4.41 11.16 11.38 10.7 20.25A27.35 27.35 0 0 1 48 72.72c-.2.31-.41.62-.6.94a.31.31 0 0 0 0 .18c4.15 2.28 8.1 1.32 11.94-.75a4.19 4.19 0 0 0 1.48-1.59 25.22 25.22 0 0 0 3.08-9.92C64.46 56.25 65.13 51 67.32 46a17.63 17.63 0 0 1 10.13-9.81C83 34 88.62 32.88 94.46 34.9a25.46 25.46 0 0 1 12.31 9.68c8.16 11.3 12.62 23.76 11.53 37.88-1 13.53-10.52 19.92-19.61 21.23-7.28 1-12.88-2-17.08-7.79a38 38 0 0 1-6.53-16C75 79.35 75 78.81 75 78c1 1.25 1.77 2.3 2.63 3.26 5.64 6.32 12.59 7.31 19.79 2.84 8-5 11.7-13.47 10-23.19a32.58 32.58 0 0 0-5-13.23c-2.23-3.25-5-5.61-9.35-5.22a10.48 10.48 0 0 0-9.49 7.1c-1 2.51-1.51 5.17-2.24 7.76-1 3.67-2 7.36-3.16 11A12.85 12.85 0 0 1 76 72.48a10.67 10.67 0 0 1-3.61 2.91c-3 1.35-6.06 2.37-9.11 3.53-.46.18-.92.37-1.57.63.46.38.77.63 1.06.89 9.13 8.05 13.47 18 11 30.14-1.76 8.7-7.26 14.79-15.58 18-14.57 5.66-28.42 2.27-39.26-9.38C13 112.85 8.84 105.43 5.39 97.55c-.78-1.76-1.48-3.55-2.22-5.34z"/><path class="cls-1" d="M31.19 20.27c3 1.79 5.61 3.69 8.51 5.1 10.8 5.24 22.1 2.51 30.09-7.22 2.56-3.12 4.89-6.42 7.4-9.73l7 4.68c1.43 1 2.89 1.87 4.24 2.93a2 2 0 0 1 .54 1.59 5.21 5.21 0 0 1-.91 2c-4.32 6.3-9.23 11.95-16.19 15.38-7.32 3.65-15 4.95-23 2.88-6.94-1.79-11.48-6.6-15-12.52-.99-1.58-1.77-3.36-2.68-5.09z"/><path class="cls-1" d="M44.32 15.81L51.08 2.5l13.31 6.76-6.75 13.32z"/></g></g></svg>