<svg xmlns="http://www.w3.org/2000/svg" viewBox="0 0 139.55 144.71"><defs><style>.cls-1{fill:none;stroke:#fff;stroke-linecap:round;stroke-linejoin:round;stroke-width:5px}</style></defs><title>star-right</title><g id="Слой_2" data-name="Слой 2"><g id="Layer_5" data-name="Layer 5"><path class="cls-1" d="M55.96 2.5l32.69 36.25 48.4-6.38-24.37 42.29 21.02 44.05-47.75-10.11-35.4 33.61-5.15-48.54L2.5 70.39 47.08 50.5l8.88-48z"/><path class="cls-1" d="M65.65 29.42l20.08 22.26 29.72-3.92-14.97 25.97 12.91 27.06-29.33-6.21-21.74 20.64-3.15-29.81-26.35-14.3L60.19 58.9l5.46-29.48z"/><path class="cls-1" d="M74.81 54.89l8.15 9.03 12.05-1.59-6.07 10.53 5.24 10.97-11.9-2.51-8.81 8.37-1.28-12.09-10.69-5.8 11.1-4.96 2.21-11.95z"/></g></g></svg>