<svg xmlns="http://www.w3.org/2000/svg" viewBox="0 0 113.7 115.22"><defs><style>.cls-1{fill:none;stroke:#fff;stroke-linecap:round;stroke-linejoin:round;stroke-width:5px}</style></defs><title>star-left</title><g id="Слой_2" data-name="Слой 2"><g id="Layer_5" data-name="Layer 5"><path class="cls-1" d="M77.43 2.5l1.2 38.71 32.57 20.96-36.44 13.1-9.87 37.45-23.72-30.61L2.5 84.3l21.78-32.02-14.03-36.1L47.44 27 77.43 2.5z"/><path class="cls-1" d="M69.49 23.77l.74 23.77 20 12.87-22.38 8.05-6.06 23-14.57-18.8L23.47 74l13.38-19.66-8.62-22.17 22.84 6.64 18.42-15.04z"/><path class="cls-1" d="M61.98 43.88l.3 9.65 8.11 5.22-9.08 3.26-2.46 9.33-5.9-7.63-9.64.55 5.43-7.98-3.5-8.99 9.27 2.7 7.47-6.11z"/></g></g></svg>