<svg xmlns="http://www.w3.org/2000/svg" viewBox="0 0 78.3 61.08"><defs><style>.cls-1{fill:none;stroke:#fff;stroke-linecap:round;stroke-linejoin:round;stroke-width:5px}</style></defs><title>youtube</title><g id="Слой_2" data-name="Слой 2"><path class="cls-1" d="M69.55 7.61a9 9 0 0 0-7.32-5.07C56.52 2 34.66 6 34.66 6s-21.86 4-27 6.5a9 9 0 0 0-5.07 7.32C2.12 25.54 4.18 36.9 4.18 36.9s2.07 11.36 4.55 16.57a9 9 0 0 0 7.32 5.07c5.7.49 27.57-3.49 27.57-3.49s21.87-4 27-6.45a9 9 0 0 0 5.07-7.32c.49-5.7-1.58-17.11-1.58-17.11S72 12.82 69.55 7.61zM34.07 42.32l-3.82-21 20.05 7.19z" id="Layer_5" data-name="Layer 5"/></g></svg>