<svg xmlns="http://www.w3.org/2000/svg" viewBox="0 0 814.4 646.85"><defs><style>.cls-1{fill:none;stroke:#fff;stroke-linecap:round;stroke-linejoin:round;stroke-width:5px}</style></defs><title>2</title><g id="Слой_2" data-name="Слой 2"><g id="Layer_5" data-name="Layer 5"><circle class="cls-1" cx="132.63" cy="85.65" r="15.23"/><path class="cls-1" d="M634.68 180.5c-.13-4.73.36-9.47-.39-14.18-.46-2.88 1.07-5.12 2.26-7.46 6.57-12.95 12.93-26 19.88-38.75 3.13-5.74 3.06-12.09 5.08-18 .7-2 1.55-6.32 1.55-6.32S663.4 87 662 82.72a83.91 83.91 0 0 1-4.1-32.82c.35-5 2.66-9.56 4.53-14.13.77-1.87.83-4.15 2.82-6 4.57 3.44 9.24 6.88 13.83 10.43 16.33 12.6 32.75 25.06 50.39 35.8a95.09 95.09 0 0 0 13.17 7.18c23.37 9.44 46 20.52 69.26 30.23m-64.15 305.17c10.7 10.2 21.27 20.54 32.14 30.55 7.38 6.8 14.69 13.67 22 20.52m-8.24-172.79c-8.21.25-16.42.42-24.63.76-22.38.91-44.77 1.75-67.17 2.19-8.22.16-16.41.74-24.63.9-16 .31-32.09 1-48.14 1.42a4.86 4.86 0 0 0-3.73 1.51"/><path class="cls-1" d="M737.31 87.21c.37 4.85 1.14 9.71 1 14.55-.24 11.71.76 23.38.9 35.08.16 12.82 1.39 25.63 1.27 38.44-.1 11.35.87 22.63 1 34 .17 18.54 1.18 37.06 1.53 55.6.29 15.42 1.08 30.84 1.41 46.27.31 14.31.9 28.61 1.47 42.91.68 17.17 1.49 34.33 2.21 51.5.34 8.24-.85 14.08-10.06 14.53-11.07.54-22.14.94-33.21 1.53-14.68.79-29.36 1.72-44 2.59"/><path class="cls-1" d="M704.84 299.17c-1.67-3.71-1-7.79-1.25-11.58-.42-7.6-1.83-22.75-1.83-22.75s-1.73-14.67-2-22c-.17-4.37-.71-8.7-1-13.05-.5-8.86-1.52-17.68-2.32-26.51a21.55 21.55 0 0 0-7.66-.31c-10.56.92-21.14 1.09-31.72 1.42-7 .22-13.91 1.13-20.9.77m8.23 138.42c-6.44.87-13 .64-19.41.91-8.45.35-105.93.66-114.37 1.1l-2.05-10.78c-3.32-.73-6.8-.74-10-1.46-5.7-1.27-11.5-1.72-17.21-2.77-6.17-1.14-12.43-1.8-18.65-2.67M143.77 74.44L238 2.5q25 17 50 33.95Q315.21 54.8 342.5 73q19.21 12.89 38.43 25.76c7.12 4.8 14.19 9.69 21.28 14.55 3.59 2.46 3.52 2.43 1.13 6.35-10 16.4-20.59 32.38-31 48.51-5.21 8.09-10.36 16.23-15.54 24.35-26.93-18.25-45.9-34-59.32-49.22 4.39-6.83 8.83-13.75 13.28-20.65q28.73-44.6 57.41-89.23c.55-.86 1.4-1.11 1.92-1.83m369.46 150.03c-22.39-.12-44.78-.19-67.17-.4-10.95-.1-21.89-.58-32.84-.69-12.81-.13-25.63.31-38.43-.1-25-.8-50-.56-75-.71-8.83-.05-17.66-.47-26.5-.71M367.12 425.3c.52 4.62 3.48 8.22 5.32 12.27 4.06 9 8.85 17.6 12.88 26.58 2.39 5.32 9.75 13.8 9.75 13.8l30.29 33.9s2.93 3.63 5.19 4.51m-17.15 40.29c-2.94 3-4.44 6.84-6.34 10.45q-18.1 34.33-36.22 68.65c-1.41 2.65-2.17 5.69-4.45 7.85m106.34-463.47c-2.49 10.32-5 20.64-7.45 31-2.65 11.19-5.22 22.39-7.85 33.58-1.08 4.61-2.43 9.17-3.23 13.83-.25 1.44-1.23 2.17-1.61 3.34m96.27 227.6c-8.13 6.21-16.9 11.47-25.39 17.14-8.75 5.84-17.86 11.17-26.39 17.31-4.78 3.44-7.9 8.75-11.66 13.31-4.32 5.25-8.7 10.45-13.05 15.68M461.16 451a9.38 9.38 0 0 0 5.22 1.14c12.19 0 24.38-.12 36.57 0 11.69.12 23.38.57 35.08.69 12.06.12 24.13 0 36.2 0 15.18.07 30.36 0 45.52.45 10.58.33 21.15.1 31.72.27a7.67 7.67 0 0 0 3.73-.36m-7.83-72.67c-10.82.75-21.64 1.56-32.47 2.2-4.23.25-12.69.61-12.69.61s-10.94.7-16.41 1c-11.08.6-22.18.9-33.22 2.1-4.32.47-8.7.31-13.05.43M741.78 83.85c-6 4.52-13.43 5.86-20.23 8.37-13.65 5-27.16 10.51-41 15.19-6.19 2.1-12.23 4.63-18.28 7.1-.94.39-1.78.12-2.64.32M430.56 518.59c-5.37 9.21-14 25.17-16.41 35.45q-1.89 10.34 6.2 19.45c6.08 17.54 11.63 35.26 17.23 53 .86 2.73 3.48 3.9 4.54 6.32m202.64-207.14L544 425.3h-16c-17.17-.11-51.5-.38-51.5-.38l-3-.36"/><path class="cls-1" d="M635.06 181.25a33.15 33.15 0 0 0-.26 10.81 129.27 129.27 0 0 1 .63 16.43 365 365 0 0 0 2.1 37c.39 4.06.71 8.19.94 12.3.46 8.34 1.14 16.68 1.84 25 .52 6.23 1.22 12.44 1.85 18.66m-84.72-89.6c-14.8.84-29.62 1.15-44.41 2.16-9.55.65-19.15.58-28.73.8a6 6 0 0 1-1.49-.36M422.73 30.11c-4.35 2.61-13.11 7.75-13.11 7.75s-3.17 2.92-1.87 5.71c8.55 18.36 16.94 36.81 25.43 55.2q10.19 22.05 20.55 44c.52 1.11.3 2.55 1.46 3.37m199.27 286.62c.44 6.72.85 13.44 1.31 20.15q.6 8.59 1.31 17.17a4.39 4.39 0 0 1-2.21 4.54c-15.49 10.47-30.89 21.08-46.31 31.66-9.22 6.33-18.4 12.71-27.62 19q-25.35 17.4-50.74 34.72c-8.07 5.53-16.25 10.88-23.55 17.49q-14.51 13.13-29.47 25.76c-11.3 9.58-22.55 19.22-33.56 29.14"/><path class="cls-1" d="M542.89 93.18c-.89 14.18-11.73 21-8.4 37.34 3 14.64 23.91 23.46 23.72 36.18-.22 15 .69 30 .11 45-.36 9.49.72 19 .95 28.54.18 7.71 0 23.14 0 23.14v22m85.86 38.42c2.62.78 4.43 2.78 6.3 4.52 6.58 6.1 12.9 12.47 19.46 18.6q18.34 17.11 36.65 34.25c6.95 6.48 13.8 13.07 20.78 19.53 5.81 5.38 11.46 10.93 17.18 16.4M469 275.66c-1.41 4.37-1.49 9-2.19 13.44-1 6.19-1.49 12.44-2.31 18.65-.79 6-1.74 11.94-2.59 17.91-.76 5.35-1.53 10.69-2.22 16a44 44 0 0 0-.38 5.6v97.77l.07 2.93s.64 6-.52 8.6c-8.56 18.85-17.33 37.61-26.05 56.38-.7 1.51-1.59 2.94-2.32 4.28 8.72 7.63 17.26 15.14 25.85 22.59 4.93 4.28 10 8.41 14.9 12.71 3.72 3.25 7.47 6.47 11.13 9.77 5.9 5.32 12.07 10.31 18 15.61.74.66 1.83 1.16 1.89 2.4M417.87 33.47l51.87 106M356.3 193.56q-19.78 30.79-39.55 61.58c-.06.09 0 .24 0 .76L347.4 297c7.08-5.75 63.73-53.74 70.8-59.49m324.33 38.15c-5.35.12-16 .51-16 .51s-12.72.67-19.06 1.24c-12 1.09-24.14 1.19-36.19 2.3-4.33.4-13.06.62-13.06.62s-11.66 1.2-17.53.93"/><path class="cls-1" d="M357.42 193.19q38.62 28.17 77.25 56.35 15.65 11.41 31.35 22.76c.59.42 1.24.75 1.86 1.13M526.47 27.5l25.8 56c-21.34 29.07-52.18 26.22-84 27.62-3.5.15-7 .83-10.45 1.26m247.02 187.53c.37 8.74 1.27 17.43 2.17 26.13.33 3.22.63 6.49.71 9.7.27 10.5 2 20.86 2.58 31.33.24 4-.37 8.35 1.24 12.34.48 1.19-.59 2.2-.72 3.35m-216.45-11.94c-6.37-1.82-12.78-3.68-19.37-4.47-7.2-.86-14.43-.33-21.64-.35-17.91 0-35.82.09-53.74.15L347.4 297m139.88-107.17c-4.49 12.6-7.14 29.92-9.44 43.27-1.77 10.28-4.24 20.45-6.68 30.6-3.67 15.26 2.78 15.18 15.74 23.91 11.08 7.47 21.26 16.2 32.47 23.5M390.26 139.45q-28-18.66-55.95-37.36c-.78-.52-2-.59-2.27-1.82l-4.32-3.92-179.86-10.7m306.96 60.52c-4.83 1.57-14.53 4.57-14.53 4.57l-4.58 3.26s-19.41 28.61-29 43q-7.11 10.62-14.18 21.27m125.35-80.68c-10.76.27-36.73-2.79-47.77 2.24"/><path class="cls-1" d="M639.91 281.26c-9.69.79-19.46.76-29.08 1.75-7.24.74-14.46.75-21.68 1.12-9.69.49-19.37 1.34-29.09 1.59-8.16.21-16.44.78-24.64 1.55-12.91 1.21-25.87 1.65-38.81 2.19a4.33 4.33 0 0 0-3.36 1.51M517.88 110c.12 12.56 0 25.14.46 37.69.4 10.33.7 20.64.66 31m17.17 191.38c-12.07.25-24.13.51-36.2.73a38.27 38.27 0 0 1-4.1-.35m-66.8-206.37c6.16 4.69 12.93 8.47 19.36 12.75a87.42 87.42 0 0 0 20.19 1.76 52.86 52.86 0 0 0 10.45 1.16m167.18 248.91a8.08 8.08 0 0 1 .49-8.14c1.5-2.48 3.95-4.3 7.35-3.43 3.23.83 5.56 2.86 6.24 6 .65 3-.79 5.43-3.21 7.49a57.19 57.19 0 0 1-13.48-.83c-5 .84-9.93 1.63-14.93 2.22-10.58 1.24-8.59 5.19-8.18 16.47.3 8.36-3.87 25.87 1.44 33.61 2.24 3.27 4.26 6.7 6.37 10.05m-95.53-180.62c.95 3.8.57 7.73 1 11.58 1.2 12 1.35 24.14 2.51 36.17.86 9 1.18 18 2.36 26.9.74 5.64 1.2 17.15 1.2 17.15s.82 14.42 1.2 21.64m38 29.08c.25 3.86.55 7.71.73 11.57.11 2.48 2.21 6.75 2.21 6.75s16 23.23 23.93 34.86M391 140.2l34.7 22a23 23 0 0 1 2.25 1.85m197.41 140.34c5.44 3.7 9.08 9.42 14.58 13a13.76 13.76 0 0 1 4.26 4.78c1.06 1.74.12 3 0 4.2a80.19 80.19 0 0 0 .88 16.39c1.3 10.08 1.32 20.25 2.92 30.29.6 3.78.28 7.69.74 11.56 1 8.3 1.14 16.7 2.32 25 .32 2.22-.48 4.52.38 6.72m-110.05 9.34c.07 14.81-.87 29.59-.92 44.41 0 4.11.71 7.3 3.11 10.49 2.11 2.8 3.78 5.93 5.65 8.92m195.54-131.36c-11-.25-21.87 1.29-32.84.77a5.54 5.54 0 0 0-1.49.35"/><path class="cls-1" d="M455.56 146.54q6.16 13.62 12.31 27.24c.6 1.33 1.6 2.52 1.5 4.1m1.12-37.68c4.23 10.49 9.9 20.31 14.55 30.6m94.79 298.91l-30.23 19.77M434.67 102.51l-29.11 13.43m122.77 173.15c-1.8 6.07-4.58 11.75-7.07 17.55a34.16 34.16 0 0 0-1.14 3.72m-59.7 333.99c-4.1-.36-6.62-3.51-9.66-5.65a95.59 95.59 0 0 1-7.28-6.28c-4.33 2.75-8.61 5.48-12.91 8.19-2.77 1.75-5.54 3.52-9 3.74m184.01-359.74c1.89 3.67 5.46 5.73 8.23 8.57 2 2.08 6.3 6 6.3 6s1.64 2.49 1.52 4.08m20.52-1.11c-.06 4.62 1 9.16.91 13.81 0 1-.79 1.68-.54 2.61M534.68 136.84q-8 .09-16 .75m-19.45 41.79c-.8 4.46-2.92 8-7.48 9.27q-15.62-.74-9.34-15.27c3.31-4.37 13.36-3.86 15.58 2.68.38 1.11 1.4 1.77 1.43 2.94m125.19 125c-5.73 0-99.48 7.63-105.23 7.09M447.35 96.35L435 102.14m-312.67-27.7L2.5 23.58"/></g></g></svg>