<svg xmlns="http://www.w3.org/2000/svg" viewBox="0 0 189.9 93.5"><defs><style>.cls-1{fill:#fff}</style></defs><title>label</title><g id="Слой_2" data-name="Слой 2"><path class="cls-1" d="M184.31.1l-46 12.27-3.81 1-39.4 10.51-3.77 1-45 12-3.81 1-40.4 10.79a2.85 2.85 0 0 0 1.47 5.51l4-1.07 3.91 14.67A26.45 26.45 0 0 0 13.44 73a15.19 15.19 0 0 0 2.74 3.85A14.54 14.54 0 0 0 20 79.57a22.79 22.79 0 0 0 5.23 1.8 26.7 26.7 0 0 1 3.69-11.08 17.59 17.59 0 0 1 8.61-6.79L45 91.38a2.85 2.85 0 0 0 3.49 2h.16a2.85 2.85 0 0 0 2-3.49l-8.9-33.4q-16.82 4.51-20 17.12A7.81 7.81 0 0 1 19.08 71a18.36 18.36 0 0 1-2-5l-3.8-14.4L44 43.41l2.76-.73a10.32 10.32 0 0 1 5.61.26 25.59 25.59 0 0 1 6.14 2.77A32.75 32.75 0 0 1 64 49.95a17.39 17.39 0 0 1 3.62 4.61 18.49 18.49 0 0 0-2.82.49 13.1 13.1 0 0 0-3.9 1.82 11 11 0 0 0-2.82 2.79 8.72 8.72 0 0 0-1.42 3.55 9.43 9.43 0 0 0 .23 4 10.56 10.56 0 0 0 1.71 3.59 9.93 9.93 0 0 0 6.4 3.94 10.46 10.46 0 0 0 8-2.22 8.71 8.71 0 0 0 2.31-3.15 11.61 11.61 0 0 0 .89-4 16.25 16.25 0 0 0-.41-4.47 11.1 11.1 0 0 1 4.08 1.1 23.79 23.79 0 0 1 4.37 2.61A25.14 25.14 0 0 1 88 68.07a11.58 11.58 0 0 1 2.26 3.52l1.92 7.21a2.85 2.85 0 0 0 3.49 2h.16a2.85 2.85 0 0 0 2-3.49l-12-45 7-1.86 3.77-1 3-.8 3.91 14.67a26.48 26.48 0 0 0 1.93 5.19 15.19 15.19 0 0 0 2.74 3.85A14.54 14.54 0 0 0 112 55a22.79 22.79 0 0 0 5.23 1.8 26.7 26.7 0 0 1 3.69-11.08 17.59 17.59 0 0 1 8.59-6.72l7.43 27.89a2.85 2.85 0 0 0 3.49 2h.16a2.85 2.85 0 0 0 2-3.49L133.72 32q-16.82 4.48-20 17.14a7.81 7.81 0 0 1-2.67-2.59 18.35 18.35 0 0 1-2-5l-3.84-14.39L136 18.89l2.76-.73a10.32 10.32 0 0 1 5.61.26 25.58 25.58 0 0 1 6.14 2.77 32.73 32.73 0 0 1 5.49 4.24 17.38 17.38 0 0 1 3.61 4.57 18.49 18.49 0 0 0-2.82.49 13.09 13.09 0 0 0-3.9 1.82 11 11 0 0 0-2.82 2.79 8.73 8.73 0 0 0-1.42 3.55 9.44 9.44 0 0 0 .23 4 10.56 10.56 0 0 0 1.69 3.57 10 10 0 0 0 2.8 2.6 9.85 9.85 0 0 0 3.57 1.35A9.5 9.5 0 0 0 161 50a9.59 9.59 0 0 0 3.92-2 8.71 8.71 0 0 0 2.31-3.15 11.62 11.62 0 0 0 .89-4 16.25 16.25 0 0 0-.41-4.47 11.1 11.1 0 0 1 4.12 1.12 23.77 23.77 0 0 1 4.37 2.61 25.12 25.12 0 0 1 3.74 3.43 11.59 11.59 0 0 1 2.26 3.52l1.92 7.21a2.85 2.85 0 0 0 3.49 2h.16a2.85 2.85 0 0 0 2-3.49l-12-45 8-2.13A2.85 2.85 0 0 0 184.31.1zM70.57 62.29q1.51 5.68-2.95 6.86a4 4 0 0 1-3.49-.57 4.44 4.44 0 0 1-1.13-1.2 5.32 5.32 0 0 1-.7-1.57 3.88 3.88 0 0 1-.06-2 4.08 4.08 0 0 1 .76-1.62 4.49 4.49 0 0 1 1.44-1.12A11.47 11.47 0 0 1 70 60zm16.86-1.24a15.88 15.88 0 0 0-2.8-2.18A29.12 29.12 0 0 0 81.09 57a34.79 34.79 0 0 0-3.77-1.45 21 21 0 0 0-3.52-.82 28 28 0 0 0-16.3-14.92l22.66-6zm75.11-23.28q1.51 5.68-2.95 6.86a4 4 0 0 1-3.49-.57 4.44 4.44 0 0 1-1.17-1.21 5.33 5.33 0 0 1-.7-1.57 3.88 3.88 0 0 1-.06-2 4.08 4.08 0 0 1 .84-1.59 4.49 4.49 0 0 1 1.44-1.12 11.47 11.47 0 0 1 5.48-1.09zm16.86-1.24a15.86 15.86 0 0 0-2.8-2.18 29.08 29.08 0 0 0-3.54-1.9 34.83 34.83 0 0 0-3.78-1.45 21 21 0 0 0-3.52-.82 28 28 0 0 0-16.3-14.89l22.66-6z" id="Layer_5" data-name="Layer 5"/></g></svg>