<svg xmlns="http://www.w3.org/2000/svg" viewBox="0 0 57.17 77.57"><defs><style>.cls-1{fill:none;stroke:#fff;stroke-linecap:round;stroke-linejoin:round;stroke-width:5px}</style></defs><title>marker</title><g id="Слой_2" data-name="Слой 2"><path class="cls-1" d="M53.42 36.1c.16-.49.3-1 .42-1.47A19.62 19.62 0 0 0 54.6 30 25.66 25.66 0 0 0 7.17 14.66a19.61 19.61 0 0 0-2.08 4.17c-.18.47-.36.94-.52 1.43a25.85 25.85 0 0 0-.8 3.13c-5.8 25.22 10 51.67 10 51.67s28.32-12.14 38.42-36a25.9 25.9 0 0 0 1.23-2.96zm-11.06-3.59a14 14 0 1 1-9-17.69 14 14 0 0 1 9 17.69z" id="Layer_5" data-name="Layer 5"/></g></svg>