<svg xmlns="http://www.w3.org/2000/svg" viewBox="0 0 194.2 113.54"><defs><style>.cls-1{fill:#fff}</style></defs><title>5</title><g id="Слой_2" data-name="Слой 2"><path class="cls-1" d="M9.13 76.08C12.4 85.59 19.86 94.19 29 97.39a3 3 0 0 1 1.89 3.76 3 3 0 0 1-3.95 2c-6.28-2.31-11.88-7.15-16.24-13.3.58 8.3-1 16.28-4.87 22.32a3 3 0 0 1-4.13.93 3 3 0 0 1-.95-4.25c5.46-8.36 6.23-20.42 2.74-30.54L.17 68.72A3 3 0 0 1 2 64.86a3 3 0 0 1 3.86 1.88zm13.78-23.69l.65-.23a2.61 2.61 0 0 1 3.32 1.62L46 109.37a2.61 2.61 0 0 1-1.62 3.32l-.65.23a2.61 2.61 0 0 1-3.32-1.62l-10.7-31.17L21.42 83a2.61 2.61 0 0 1-3.32-1.62A2.61 2.61 0 0 1 19.72 78L28 75.19l-6.71-19.48a2.61 2.61 0 0 1 1.62-3.32zm16.9-4.28l20.51 59.52a3 3 0 0 1-1.86 3.81 3 3 0 0 1-3.81-1.86L34.14 50.06A3 3 0 0 1 36 46.25a3 3 0 0 1 3.81 1.86zm54.73 16.46a28.92 28.92 0 0 1-18.14-9.15 28.76 28.76 0 0 1-8.54 20.32A2.91 2.91 0 0 1 64 76a2.91 2.91 0 0 1-.34-4.34 25 25 0 0 0 6.06-25.76l-1.36-3.95a2.9 2.9 0 0 1 1.8-3.68l.48-.16a2.9 2.9 0 0 1 3.68 1.8l1.54 4.45c2.7 7.84 10.31 13.41 19.36 14.5a2.89 2.89 0 0 1 2.44 3.62 2.88 2.88 0 0 1-3.12 2.09zM120 76.9c2.6 7.56-4.13 14.68-17.35 19.23S79.64 99.26 77 91.7 81.14 77 94.43 72.37s22.92-3.1 25.57 4.53zm-6 2.1c-1.58-4.58-8.39-5.24-18-1.93s-14.62 8-13 12.63 8.37 5.17 18 1.83 14.57-8.07 13-12.53zm3.2-39.07a2.61 2.61 0 0 1-1.62 3.32l-7.19 2.48 5.08 14.75a3.15 3.15 0 0 1-2 4 3.15 3.15 0 0 1-4-2L96 29a3.15 3.15 0 0 1 2-4 3.15 3.15 0 0 1 4 2l4.76 13.81 7.19-2.48a2.61 2.61 0 0 1 3.27 1.55zm40.08-33.85a3 3 0 0 1 3.81 1.86L180 62.8a3 3 0 0 1-1.86 3.81 3 3 0 0 1-3.81-1.86l-10-28.92-8.21 2.83c3.9 13 1.3 22.64-6.69 25.4-8.5 2.93-17-3.91-21.82-18-4.78-13.88-2.34-24.48 6.16-27.41 7.85-2.71 15.71 3.12 20.67 15.15l8.24-2.8-7.26-21.11a3 3 0 0 1 1.86-3.81zM150 38.33c-3.61-10.46-9.23-15.93-14.32-14.17s-6.22 9.54-2.62 20c3.68 10.68 9.23 16.17 14.46 14.36S153.7 49 150 38.33zM173.52 2L194 61.54a3 3 0 0 1-1.86 3.81 3 3 0 0 1-3.81-1.86L167.85 4a3 3 0 0 1 1.86-3.84A3 3 0 0 1 173.52 2z" id="Layer_5" data-name="Layer 5"/></g></svg>