<svg xmlns="http://www.w3.org/2000/svg" viewBox="0 0 224.82 110.84"><defs><style>.cls-1{fill:#fff;stroke:#fff;stroke-miterlimit:10}</style></defs><title>1</title><g id="Слой_2" data-name="Слой 2"><g id="Layer_5" data-name="Layer 5"><path class="cls-1" d="M159.85 49.39v-.06a2.31 2.31 0 0 1 2.77-1.73l7.58 1.73 4.91-11.69a2.61 2.61 0 0 1 3.66-1.28 2.61 2.61 0 0 1 1.23 3.28c-1.43 3.65-3.12 7.18-4.71 10.82l13 3c-3.69 11-8.12 21.49-15.41 30.54l6.39 7.56a2.52 2.52 0 0 1-.44 3.67 2.52 2.52 0 0 1-3.41-.41l-5.9-6.94a39.69 39.69 0 0 1-9.52 7.43 83.09 83.09 0 0 1-8.93 4.44 2.52 2.52 0 0 1-3.18-1.07l-.1-.18a2.53 2.53 0 0 1 1.21-3.59c6.15-2.6 12.19-5.47 17.08-10.57-1.7-1.49-3.28-3-5-4.3s-3.48-2.54-5.29-3.84a190.81 190.81 0 0 0 12.41-22.52l-6.61-1.51a2.31 2.31 0 0 1-1.74-2.78zm13.6 5.48l-11 20.22c0-.08 0 0 0 0l6.55 5.17a2.42 2.42 0 0 0 .53.24 66.3 66.3 0 0 0 12.35-23.71zM61.09 8.11a2.25 2.25 0 0 1 1.08 2.79 72.92 72.92 0 0 1-6.5 13.4l14.47 3.3a2.25 2.25 0 0 1 1.69 2.69l-.05.23a2.25 2.25 0 0 1-2.69 1.69l-1.31-.3c-.27.9-.52 1.7-.76 2.51A83.06 83.06 0 0 1 60 51.2a73.35 73.35 0 0 1-5.79 8.8 1.52 1.52 0 0 0-.21 1.12 34.38 34.38 0 0 0 4.78 10.66c.62 1 1.28 2 2 2.93l.57.82a2.47 2.47 0 0 1-.73 3.47 2.47 2.47 0 0 1-3.4-.61A54 54 0 0 1 50.1 64.7a92.27 92.27 0 0 1-12.92 9.74 2.25 2.25 0 0 1-3.18-.81l-.25-.43a2.25 2.25 0 0 1 .81-3 73 73 0 0 0 14.2-11c-1.74-8.34-.87-16.74.19-25.28l-3.62 3.24a2.25 2.25 0 0 1-2.93.06l-.36-.3A2.25 2.25 0 0 1 42 33.5c7.54-6.58 12.53-14.82 15.93-24.15a2.25 2.25 0 0 1 3.16-1.24zM54 28.82a97.44 97.44 0 0 0-1.13 25.52c5-7.23 8-15.19 10.35-23.42z"/><path class="cls-1" d="M204.3 78.7l-.18.79q-2.87 12.58-5.73 25.16a7.34 7.34 0 0 1-3 4.67 6.1 6.1 0 0 1-4.77.86c-1.81-.36-4.85-1.06-6.75-1.52a2.55 2.55 0 0 1-1.93-2.15v-.06a2.55 2.55 0 0 1 3.18-2.78c1.87.5 4 1 5.19 1.31a2.78 2.78 0 0 0 3.32-2.19l5.61-24.58.17-.73L185 74.21a2.26 2.26 0 0 1-1.7-2.7v-.1a2.26 2.26 0 0 1 2.7-1.7L200.24 73c.08-.27.15-.46.19-.64.6-2.46 1.17-4.92 1.8-7.38a1.64 1.64 0 0 1 .61-.84 86.24 86.24 0 0 0 14.53-11.71c.1-.1.18-.21.33-.39l-24.47-5.64a2.26 2.26 0 0 1-1.7-2.7 2.26 2.26 0 0 1 2.7-1.7l30 6.84a38.62 38.62 0 0 1-1.11 4.6c-.27.75-1.09 1.32-1.68 1.94a78.77 78.77 0 0 1-14.23 11.5c-.57.37-1.65 6.77-1.72 7.24l16.71 3.81a2.26 2.26 0 0 1 1.7 2.7v.21a2.26 2.26 0 0 1-2.7 1.7zM33.73 66.76h-.19a2.34 2.34 0 0 1-1.76-2.8l.48-2.11L19.83 59l-1 4.22a2.34 2.34 0 0 1-2.8 1.76l-.33-.08a2.34 2.34 0 0 1-1.7-2.83l6.3-27.62 8.3 1.89L32 21.57l-8.4-1.9a2.34 2.34 0 0 1-1.76-2.8 2.34 2.34 0 0 1 2.8-1.76L33 17l2.79-12.45a2.34 2.34 0 0 1 2.8-1.76h.13a2.34 2.34 0 0 1 1.76 2.8L37.64 18 46 20a2.34 2.34 0 0 1 1.76 2.8A2.34 2.34 0 0 1 45 24.57l-8.11-1.85-3.37 14.71 8.84 2L36.53 65a2.34 2.34 0 0 1-2.8 1.76zm-.41-9.66L36.54 43l-12.46-2.82-3.21 14.08zm71.9-8.84L111 23l34.56 7.89-5.76 25.25zm5.78-3.45l24.91 5.68 1.35-5.91-24.89-5.68zm3.7-16.14l-1.29 5.65L138.38 40l1.29-5.65zm-1.36 62.66v-.05a2.34 2.34 0 0 1 2.93-2.64l3 .82a6.8 6.8 0 0 0 1.77.19 2.7 2.7 0 0 0 2.79-2.32c.48-1.7.86-3.43 1.26-5.15.54-2.32 1.06-4.64 1.59-7l.15-.68-30.59-7a2.26 2.26 0 0 1-1.7-2.71v-.15A2.26 2.26 0 0 1 97.32 63l30.54 7 1.4-6.15-26.09-6a2.26 2.26 0 0 1-1.7-2.71v-.07a2.26 2.26 0 0 1 2.71-1.7l36.22 8.27a2.26 2.26 0 0 1 1.7 2.71 2.26 2.26 0 0 1-2.71 1.7l-5.26-1.2-1.41 6.18 8.46 1.97a2.26 2.26 0 0 1 1.7 2.71v.16a2.26 2.26 0 0 1-2.71 1.7l-8.43-1.92-.16.68-3 13.51c-.64 2.83-4.28 5.36-7.12 4.82-2.09-.4-4.15-.91-6.27-1.41a2.34 2.34 0 0 1-1.85-1.92z"/><path class="cls-1" d="M1.24 32.13L1.13 32a2.33 2.33 0 0 1 .21-3.38c9-7.46 15.45-16.83 21.14-26.94a2.33 2.33 0 0 1 3.37-.75 2.33 2.33 0 0 1 .73 2.95c-.5 1-1 2-1.2 2.33-2.07 3.68-4.51 7.13-6.9 10.61a3.63 3.63 0 0 0-.48 1.24c-3.21 14-9.25 40.49-11 48.37a2.33 2.33 0 0 1-2.79 1.75h-.13a2.33 2.33 0 0 1-1.75-2.79l8.81-38.58-6.71 5.51a2.33 2.33 0 0 1-3.19-.19zM77 56.65l-.27-.3a2.24 2.24 0 0 1 .8-3.55 53.34 53.34 0 0 0 20.13-14.68 2.23 2.23 0 0 1 3.49.09v.05a2.24 2.24 0 0 1-.19 2.93c-1.92 1.93-5.35 5.34-7.08 7a2.61 2.61 0 0 0-.61 1.09c-2.29 10-6.53 28.47-8 35a2.44 2.44 0 0 1-2.92 1.83 2.44 2.44 0 0 1-1.84-2.92l6.85-30-7.66 3.92a2.24 2.24 0 0 1-2.7-.46zm26.9-37.77a2.38 2.38 0 0 1 0 3.26A62.41 62.41 0 0 1 86 35.67a2.41 2.41 0 0 1-3-.67v-.11a2.39 2.39 0 0 1 .93-3.59 49.61 49.61 0 0 0 16.5-12.36 2.39 2.39 0 0 1 3.47-.06zm-.58 52.78a30 30 0 0 1 9.44 8.42 2.41 2.41 0 0 1-.59 3.42 2.41 2.41 0 0 1-3.29-.57 35.68 35.68 0 0 0-7.73-7.86 2 2 0 0 1 .07-3.34 2 2 0 0 1 2.1-.07z"/></g></g></svg>