<svg xmlns="http://www.w3.org/2000/svg" viewBox="0 0 158.53 131.2"><defs><style>.cls-1{fill:none;stroke:#fff;stroke-linecap:round;stroke-linejoin:round;stroke-width:5px}</style></defs><title>angry</title><g id="Слой_2" data-name="Слой 2"><g id="Layer_5" data-name="Layer 5"><path class="cls-1" d="M28.55 86.3L2.5 82.1m25.1-2.49L3.53 75.72m25.09-2.49L4.56 69.35m149.41 37.19l-27.05-4.37m28.08-2.01l-24.07-3.88m25.1-2.5l-24.07-3.88M55.24 32.69L60.61 2.5l16.86 23.34m23.03 3.72l23.34-16.86-4.4 30.35m-52.16 61.52l10.53-7.61 7.6 10.53"/><circle class="cls-1" cx="79.39" cy="87.18" r="4.83" transform="rotate(-35.83 79.398 87.2)"/><path class="cls-1" d="M46.83 65.94l17.77 2.87m34.6 5.58l17.77 2.87"/><circle class="cls-1" cx="80.99" cy="77.21" r="51.48" transform="rotate(-80.83 81 77.209)"/><path class="cls-1" d="M85.93 25.95L80.77 57.9M92.43 27l-5.15 31.95"/></g></g></svg>