<svg xmlns="http://www.w3.org/2000/svg" viewBox="0 0 241.39 171.34"><defs><style>.cls-1{fill:none;stroke:#fff;stroke-linecap:round;stroke-linejoin:round;stroke-width:5px}</style></defs><title>11</title><g id="Слой_2" data-name="Слой 2"><path class="cls-1" d="M206.59 18.73c-.86-2.16-1.44-3.77-2.14-5.32-2-4.56-1.3-7.15 2.69-9.06 6.18-3 10.19-2.47 12.13 2.21 3.67 8.85 7.31 17.75 10.15 26.88 3.45 11.08 6.15 22.4 9 33.65 1.55 6.08-.86 9.72-6.83 11-4.55 1-7.7-.85-8.94-5.36-1-3.51-1.76-7.07-2.47-10.64-.51-2.57-1.76-3.26-4.3-2.61-6 1.54-12 2.87-17.86 4.23 1.17 3.62 2.38 6.52 3 9.54.86 4-1.46 6.54-5.05 7.6a165 165 0 0 1-44.66 7c-6.78.09-12.09-3.67-13.63-10.54-2.86-12.76-5.16-25.65-7.27-38.56-.86-5.22 1.89-7.69 7.91-8.47 4.84-.63 7.46 1.31 8.38 6.49 1.58 8.9 2.85 17.87 4.62 26.74s3.37 8 9.53 7.63A131.08 131.08 0 0 0 189.46 66c-1.23-3.23-2.71-6.07-3.37-9.09-1-4.66 1-7.53 5.6-8.68 6.56-1.64 13.13-3.19 19.71-4.73 2.1-.49 4.13-.88 3.05-3.87-.91-2.52-1.2-5.37-5.32-4-6.68 2.15-13.48 3.93-20.24 5.82-4.94 1.38-6.85.7-8.4-2.84C178.09 33.06 179 28.13 183 26a39 39 0 0 1 6.86-2.34c5.44-1.66 10.85-3.2 16.73-4.93zM48.75 119.49c-14 2.76-26.68 2.57-36.07-7.78-9.17-10.11-12.95-22.5-8-36C8.52 65.3 16.42 58.88 26.79 55.22a42 42 0 0 1 26.94-.75c13.73 4.16 20.43 14.38 22.68 27.43 2.39 13.83-4 24.42-15.56 31.76-4.04 2.56-8.67 4.21-12.1 5.83zm-5.65-15.77c1.44-.34 2.92-.57 4.32-1 8.06-2.68 13.31-9.32 13.46-16.9.1-5.44-5.21-12.48-11.35-15a23.44 23.44 0 0 0-27.26 7.2c-4 5.22-4.56 10.73-1.41 16.63 4.36 8.07 12.46 11.49 22.24 9.07zM211.78 134c-13.84 3-24.36-4.2-27.44-18.78-2.54-12 5.79-23.34 19.35-26.27 12.25-2.65 24.86 5.51 27.63 17.86 2.68 12.1-6.08 24.32-19.54 27.19zm-5.73-29.34c-4.23 1-6.88 4.9-5.9 8.62a7.54 7.54 0 0 0 9.24 5c4.36-1.13 7.22-5 6.31-8.46-.95-3.63-5.57-6.11-9.65-5.12zM90.66 91c-5-13.38-9.84-26.8-15-40.12-1.94-5-1.53-6.9 3.3-9.38 5.11-2.62 9.49-1.86 11.56 2.36a119.8 119.8 0 0 1 5.51 13c1.18 3.37 2.62 5.11 6.41 3.42a73.94 73.94 0 0 1 7.28-2.46c4.73-1.55 7.71-.13 9.22 4.38 1.93 5.78.33 10.28-4.23 11.81-2.81.95-5.6 2-8.48 2.7-2.7.62-3 2-2.38 4.38 1.33 5.23 2.49 10.5 3.57 15.78 1.2 5.85-1 8.72-7.57 10-4.77.91-7.08-.88-8.27-6.38-.34-1.58-.68-3.17-1-4.75s-.68-2.89-1-4.34zm-37.8 51.85c-.68-2.89-1.47-5.76-2-8.67-.85-4.64.92-7.22 5.44-8.25 5.36-1.23 9.24.54 10.49 4.84 1.54 5.31 3.08 10.62 4.53 15.95 1 3.8 3.2 5.38 7.18 4.27 9.7-2.71 19.47-5.19 29.13-8 4.52-1.34 7.18-.26 9.48 4.81 2.16 4.76 1.32 8.41-3.35 9.92-10.61 3.4-21.42 6.28-32.17 9.28-1.8.51-3.82.35-5.57 1-8.33 3-15.28-2.3-18.34-9.75-2-5-3.63-10.14-5.42-15.22z" id="Layer_5" data-name="Layer 5"/></g></svg>