<svg xmlns="http://www.w3.org/2000/svg" viewBox="0 0 150.2 212.22"><defs><style>.cls-1{fill:#fff}</style></defs><title>9</title><g id="Слой_2" data-name="Слой 2"><path class="cls-1" d="M110.92 79.21c2.39-.28 4.65-.86 6.88-.73a15.18 15.18 0 0 1 11.74 5.93c3.45 4.54 6.93 9.07 10.14 13.77 3.76 5.51 3.54 11.83-.32 17.3-3.17 4.49-6.39 8.95-9.62 13.4a26.83 26.83 0 0 1-1.85 2.05c1 .69 1.82 1.32 2.7 1.87a45 45 0 0 1 13.84 13.6 25.25 25.25 0 0 1 4.31 10.69c.3 2.21 1 4.37 1.19 6.59a45.46 45.46 0 0 1-.53 13.35 43.54 43.54 0 0 1-7.4 17.08 40.24 40.24 0 0 1-12 11.2 46.34 46.34 0 0 1-11.24 5.08 42.68 42.68 0 0 1-7.52 1.71 30.85 30.85 0 0 1-7.41-.26 65.63 65.63 0 0 1-10.44-2.12 42.13 42.13 0 0 1-9.14-4.14c-3.95-2.4-7.59-5.31-11.41-7.93-6.38-4.37-12.8-8.67-19.18-13-2.52-1.73-4.92-3.63-7.44-5.36-6.38-4.38-12.83-8.65-19.17-13.07-4.5-3.22-9.17-6.22-13.26-9.82A39.48 39.48 0 0 1 2 137.61a39.63 39.63 0 0 1 .16-25.93c1.26-3.6 2.38-7.24 3.6-10.85.84-2.5 1.74-5 2.63-7.48 1.16-3.26 2.39-6.5 3.5-9.78 1.73-5.1 3.29-10.26 5.08-15.35 1.72-4.9 3.54-9.77 5.52-14.56 1.45-3.49 4.24-6.06 6.76-8.8 1.86-2 3.76-4 5.51-6.13a2.45 2.45 0 0 0 .23-2c-1.27-3.49-2.82-6.88-4-10.4-1.59-4.82-1.79-9.56.74-14.32A17.41 17.41 0 0 1 46 2.27c5.7-.62 10.76 1.1 14.56 5.71 1.38 1.68 1.67 1.61 3.14-.06 2.77-3.16 5.72-6.12 9.94-7.3a15.07 15.07 0 0 1 11.71 1.32 15.39 15.39 0 0 1 8.26 12.3 14.76 14.76 0 0 1-3.82 11.7c-4.44 5-9 9.8-13.53 14.72a1.81 1.81 0 0 0-.49 1.44c1.5 3.77 3.12 7.5 4.64 11.26 1.16 2.88 2.21 5.8 3.33 8.69.4 1 .88 2.06 1.32 3.08.36.84.9 1 1.72.59 6.2-2.9 11.9-1.44 17.37 2a14.7 14.7 0 0 1 6.17 6.77c.68 1.66 1.21 3.21.6 4.72zm1.14 49.79c3.51 2.41 10 1.55 12.63-1.71 1.6-2 3.16-4 4.65-6 2.24-3.09 4.56-6.15 6.53-9.4 1.59-2.61 2.31-5.56.85-8.57a29.88 29.88 0 0 0-2.3-4.11c-2.68-3.83-5.22-7.8-8.26-11.34-4.93-5.75-12-6.5-17.32-.17-2.48 2.94-4.45 6.31-6.65 9.49q-5.23 7.53-10.46 15c-3.73 5.4-7.36 10.81-11.12 16.12-2.75 3.89-2.21 10.33 1.27 13.61 1.42 1.34 1.27 2.44-.88 4.34-1.22 1.08-1.89-.21-2.59-.93a16.18 16.18 0 0 1-4.48-10.58 15.49 15.49 0 0 1 2.81-9.8c3.34-5.05 7-9.9 10.45-14.87 4.11-5.87 8.24-11.74 12.26-17.68 2.35-3.47 5.33-6.57 6.43-10.82a7.43 7.43 0 0 0-1.17-6.9 15.81 15.81 0 0 0-7.24-4.9A9.81 9.81 0 0 0 85.8 73c-2.03 2.59-3.8 5.38-5.8 8-3.57 4.89-7.21 9.73-10.77 14.62-3.17 4.36-6.25 8.79-9.4 13.16-2.83 3.92-5.83 7.73-8.48 11.76-1.38 2.1-2.32 4.75-1.66 7.22a20.23 20.23 0 0 0 3.31 6.1c.72 1 .93 1.7.15 2.67-1.91 2.4-1.89 2.41-4 .17l-.22-.21A14.87 14.87 0 0 1 46.71 119c.72-1.21 1.53-2.37 2.33-3.53 3-4.21 5.89-8.43 8.89-12.6 4.92-6.82 9.91-13.57 14.81-20.4 1.55-2.17 2.64-4.87 2.05-7.34-1.53-6.41-4.86-8.66-11.24-9.81a7.87 7.87 0 0 0-4.45.72 14.54 14.54 0 0 0-6 5c-1.42 2.11-3.08 4.05-4.59 6.1-4.06 5.49-8.06 11-12.14 16.49-4.6 6.11-9.27 12.16-13.77 18.37-1.18 1.61-2.55 3.5-2.7 5.35-.28 3.51-.08 7.21 3 9.83a1.51 1.51 0 0 1 .32 2.36c-.33.45-.68.89-1 1.36-.67 1-1.38 1-2.28.23a14.15 14.15 0 0 1-4.52-6.77 14.71 14.71 0 0 1 1.28-12 66 66 0 0 1 5-7.13c4-5.42 7.87-10.89 12-16.18 4.71-6 9.1-12.26 12.09-19.34a38 38 0 0 1 8.1-12.25c3.9-3.93 7.63-8 11.39-12.1 3.49-3.78 6.89-7.63 10.37-11.41S83 26.33 86.42 22.33a9.85 9.85 0 0 0 1.82-9.63c-2.89-9.73-14.47-9-19-3.5-4.33 5.31-9.24 10.17-13.93 15.17-3.89 4.14-7.9 8.16-11.79 12.31q-7.3 7.8-14.45 15.74a13.22 13.22 0 0 0-2.58 3.94c-2.09 5.46-4 11-6 16.5C18.72 77.94 17 83 15.2 88.13c-1.93 5.47-4 10.88-5.8 16.4-1.5 4.69-2.81 9.47-3.83 14.27a37.52 37.52 0 0 0-.57 8.6 35.25 35.25 0 0 0 3.3 13.24 34.68 34.68 0 0 0 9.08 12.5 141.21 141.21 0 0 0 12 8.67c3.5 2.44 7.11 4.73 10.62 7.16 6.44 4.46 12.83 9 19.27 13.47 6 4.15 12 8.28 18 12.35 4.34 2.92 8.68 5.85 13.17 8.51s9.34 3.49 14.31 3.85a33.69 33.69 0 0 0 16.1-2.69 44.19 44.19 0 0 0 6.58-3.19 39.37 39.37 0 0 0 11.5-11.4 38.53 38.53 0 0 0 6.26-24.38 39.15 39.15 0 0 0-3.59-12.85c-2.67-6.14-7.07-10.74-12.17-14.81-1.11-.88-2.45-1.49-3.51-2.41a3.77 3.77 0 0 0-3.91-.8 15.82 15.82 0 0 1-14-2.24c-1.79-1.24-2.27-2.45-1.38-3.78s1.66-2.56 2.55-3.79q5.33-7.36 10.71-14.69c1.81-2.46 1.8-2.4 4.44-.81 1.18.71 1.25 1.41.48 2.46-2.59 3.52-5.14 7.07-7.73 10.6-1.64 2.23-3.34 4.44-5.02 6.63zM39.4 33.86c1.06-1 1.86-1.67 2.58-2.43q5.44-5.79 10.84-11.61c1.63-1.76 3.25-3.52 4.77-5.37a2.07 2.07 0 0 0 .33-1.85 11 11 0 0 0-2.59-3A12.26 12.26 0 0 0 43.5 7.88 13.45 13.45 0 0 0 34.74 19a12.28 12.28 0 0 0 1.18 6.37c1.08 2.63 2.22 5.4 3.48 8.49zM57 61.23c10.37-2.33 18.08 1.1 22.44 11.29 2-1 2.37-1.91 1.65-3.87-.42-1.14-.82-2.29-1.28-3.42Q76.44 56.69 73 48.16c-.39-1-.8-1.94-1.15-2.8z" id="Layer_5" data-name="Layer 5"/></g></svg>