<svg xmlns="http://www.w3.org/2000/svg" viewBox="0 0 148.13 111.32"><defs><style>.cls-1{fill:#fff;stroke:#fff;stroke-miterlimit:10}</style></defs><title>11</title><g id="Слой_2" data-name="Слой 2"><path class="cls-1" d="M3.92 46.19A9.56 9.56 0 0 1 12.64 44q2.58 1 3.79-.46A10.24 10.24 0 0 1 22 40.86a9.74 9.74 0 0 1 4.3 1q2 1.06 1.74-.71a6.67 6.67 0 0 1 2.44-5.46 12.47 12.47 0 0 1 8-3 5.63 5.63 0 0 1 2.65.55 2.06 2.06 0 0 0 2.25-.22q2.21-1.46 4.53-3a18.85 18.85 0 0 1 2.7-1.42 6.19 6.19 0 0 1 4.81.68A11.67 11.67 0 0 1 59 33.09a3.8 3.8 0 0 0 2.11 2.1 5.56 5.56 0 0 1 3 3.78 30.36 30.36 0 0 1 .79 5.92 37.49 37.49 0 0 1 .1 4.62q-.08.58 1.16 1.87a16.73 16.73 0 0 1 1.09 1.9A3.15 3.15 0 0 0 69 54.44 6.31 6.31 0 0 1 72.15 59l.79 5.92a18 18 0 0 1 .25 2.71A4 4 0 0 0 74.25 71a48.25 48.25 0 0 1 6.89 9.36 6.47 6.47 0 0 1 .56 2.89 9.23 9.23 0 0 1-2.95 6.13 10.61 10.61 0 0 1-6.41 3.41 8.12 8.12 0 0 1-4.18-.86q-1.73-1.2-2.83 1.07a11.79 11.79 0 0 1-8.48 4.65 9.31 9.31 0 0 1-3.17-.49q-2-1.22-2.49.79a7.48 7.48 0 0 1-4 4.44 10.82 10.82 0 0 1-7.14 1.45 5.92 5.92 0 0 1-3.28-1.15q-1.09-1.12-1.4 1-.4 4.93-5.81 6.76a13.42 13.42 0 0 1-6.2.12 7.76 7.76 0 0 1-5.24-3.63q-.9-1.43-1-6.32 0-2.49.09-5.11.14-1.93-2.17-3a8.07 8.07 0 0 1-2.56-3L5.36 71.93l-.51-1.82a4.25 4.25 0 0 0-2.12-2.88q-3-3-1.92-8.27l.74-6.56a8.39 8.39 0 0 1 2.37-6.21zm24.61 43.17q-1-.27-2.39 1.22a14.43 14.43 0 0 1-3.82 2.12 2.51 2.51 0 0 0-1.71 2.5q-.07 3.07-.09 6.05-.43 4.08 2.29 5.39a6.19 6.19 0 0 0 3.34.89 5.86 5.86 0 0 0 5.29-2.33 4.77 4.77 0 0 0 .9-2.56l.38-9.53a5.9 5.9 0 0 0-.3-2.45q-.82-1.61-1.78-1.3a14.83 14.83 0 0 1-2.11 0zM6.73 48.08a4.59 4.59 0 0 0-1.88 2.65q-.63 4.94-1.12 9.83a7.38 7.38 0 0 0 .4 2.88q.82 1.23 1.93-.64A12.3 12.3 0 0 1 9 60.66l18.11-7.44a8.7 8.7 0 0 1 4.13-.6q1.37.3 1.49-.38-.41-3.66-6.86-7.18a6.41 6.41 0 0 0-4.59-.53q-3.35 1-4.13 5a5.54 5.54 0 0 0 1 1.6q1.15 1.09-.85 1.91l-1.8.74q-2 .82-1.49-1.73a7.4 7.4 0 0 0 .19-2.58 3.45 3.45 0 0 0-.78-1.32 4.19 4.19 0 0 0-2.6-1.2 8.77 8.77 0 0 0-4.09 1.13zm5 15Q7.54 64.7 8 69l.43 1.62 7 17a4.17 4.17 0 0 0 4.68 2.45 7.6 7.6 0 0 0 3.42-1.56q1.33-1.72.45-3.08a11.6 11.6 0 0 1-1.1-4 5 5 0 0 1 2.43-4.36q1.58-.72 1.52-.86a8.69 8.69 0 0 1 1.58-.73 1.5 1.5 0 0 1 2.2 1q.69 1.67-1.32 2.49a10.09 10.09 0 0 0-2.48 1.18 2.13 2.13 0 0 0-.7 1.54 4.5 4.5 0 0 0 2.25 4.15A2.16 2.16 0 0 0 30 86l9.36-3.84A4.18 4.18 0 0 0 41.82 77l-7.14-17.36A8.6 8.6 0 0 0 33 57.22a5.58 5.58 0 0 0-5.2-.68zm7.49 5.12q-.58-1.4 1.43-2.23l2.94-1.21q2-.82 2.55.51t-1.4 2.29l-2.87 1.18q-2.06.92-2.63-.49zm2.22 5.41q-.58-1.4 1.43-2.23l2.94-1.21q2-.82 2.55.51T27 73l-2.87 1.18q-2.13.82-2.67-.51zM41.7 84.72l-.61.41L36.61 87a1.53 1.53 0 0 0-.94 2.26 11.17 11.17 0 0 1 .5 3.7 3.43 3.43 0 0 0 .08 1.53 31.78 31.78 0 0 0 1.27 3.46q1.48 3.1 5.48 2.58a10.1 10.1 0 0 0 3.39-1.63q3.06-2.82 1.51-6-.42-1.39-.76-2.81a20.28 20.28 0 0 0-2.3-5.23 2.07 2.07 0 0 0-3.14-.14zm-5.21-48.63a6.87 6.87 0 0 0-4.15 2.25 4.67 4.67 0 0 0-.76 3.28 15.29 15.29 0 0 0 1.17 3.42 7.31 7.31 0 0 0 1.2 2.16 10.54 10.54 0 0 1 1.4 2.08 8 8 0 0 1 .85 3.4 3.05 3.05 0 0 0 .6 2q.91 1.66 2.15.29a15.92 15.92 0 0 1 6.24-2.49 7.22 7.22 0 0 1 2.33 0 4.2 4.2 0 0 0 3.64-.09q2.27-1.32 4.46-2.85a10.3 10.3 0 0 1 4.38-1.7q2 .21 1.81-1.68-.44-2.79-.84-5.67a3.52 3.52 0 0 0-2.62-2.75q-3.83-.38-5.62 1.53a3.85 3.85 0 0 0-.79 3.21 15 15 0 0 1 0 1.56 2.85 2.85 0 0 1-1.82 3.17l-2.27.93q-2.07.85-2.76-.82t1.3-2.72l.64-.34a2.64 2.64 0 0 0 1.4-2.68A6.69 6.69 0 0 1 51 36.23 18.92 18.92 0 0 1 53.68 35q2.32-.51 1.08-2-2.56-2.23-5.33.16a48.56 48.56 0 0 1-6.22 3.88q-2 1.05-2.57.2a4.26 4.26 0 0 0-4.15-1.15zm13.72 45.38q-1.91-.08-1.71 1.72a34.48 34.48 0 0 0 2.59 5.34 33.34 33.34 0 0 0 2.18 3.79 3.92 3.92 0 0 0 2.65 1.88 8.26 8.26 0 0 0 6-2.22 4.81 4.81 0 0 0 1.28-4.67 4.23 4.23 0 0 0-1.22-1.84 45.32 45.32 0 0 1-3.53-4.8 1.86 1.86 0 0 0-2.53-.84 21.13 21.13 0 0 1-5.71 1.64zm-5.53-25.62A7.91 7.91 0 0 0 41 57.61a4.24 4.24 0 0 0-1.14 4.45L45 74.7a7.83 7.83 0 0 0 2 2.3 6.1 6.1 0 0 0 5.63.58l13.27-5.45a9.6 9.6 0 0 0 2.45-1.63 5.28 5.28 0 0 0 1.43-3.17 7.55 7.55 0 0 0-.23-3q-.22-1.47-.3-3a6.19 6.19 0 0 0-1-3 3.22 3.22 0 0 0-2.94-1.45l-1.5.12a5 5 0 0 0-3.38 1.86 6.87 6.87 0 0 0-.56 4.53 2.61 2.61 0 0 1-1.72 3l-2.41 1q-2.07.85-2.73-.75T54.35 64l.64-.34A2.51 2.51 0 0 0 56.42 61q.15-5.53 5.66-6.94 1.83-.29 1.25-1.14a3.5 3.5 0 0 0-4.69-1A52.38 52.38 0 0 1 51 56.54q-2 .89-2.51.17a4.74 4.74 0 0 0-3.81-.86zM69.49 74q1.49-.93-.27.11L67.7 75l-5.48 2.25a1.44 1.44 0 0 0-.78 2.27q1 1.08 3.51 4.18a44.17 44.17 0 0 0 4.27 4.5 3.33 3.33 0 0 0 2.29 1 6.34 6.34 0 0 0 5.29-2.72 8.73 8.73 0 0 0 1.44-3.33 4.43 4.43 0 0 0-1-2.7A42.22 42.22 0 0 0 72.47 74q-1.23-1.41-2.98 0zm13.77-60q3.51-3.63 9.16-.33 1.49 1.34 1.63-.59a7.3 7.3 0 0 1 1.5-2.81 12.47 12.47 0 0 1 9.46-4A2.57 2.57 0 0 0 108.39 5a13 13 0 0 1 8.17-4.46 6.77 6.77 0 0 1 5.5 1.8q.6.69 1.15 1.48a2.48 2.48 0 0 0 2.66 1.33 6.87 6.87 0 0 1 5.44 3.16 14.82 14.82 0 0 1 2.35 5.91q.52 2.6-1.8 5.5-1.33 1.33-1.15 2t2.48 1.48a9.39 9.39 0 0 1 3.89 4.34L147 51.62a9.87 9.87 0 0 1 .35 5.79 8.76 8.76 0 0 1-1.62 2.59 9.57 9.57 0 0 1-3.16 2.39l-22.32 9.17-.56.15a4.22 4.22 0 0 0-3 1.92 11.48 11.48 0 0 1-3.57 2.72l-8.69 3.57q-5.06 1.76-9-3.71a1.47 1.47 0 0 0-2.31-.69 6.21 6.21 0 0 1-5.33.71Q85.37 75.61 83 72a7.16 7.16 0 0 1-1-6.23q.7-1.15-1-2.34a10 10 0 0 1-3.44-4.76 5.85 5.85 0 0 1 .78-5.32q.93-1.16-1.16-2.26a11.24 11.24 0 0 1-3.95-4.86 7.1 7.1 0 0 1-.17-3.45 7.76 7.76 0 0 0 .94-2.17 8.5 8.5 0 0 0-2.29-1 10.46 10.46 0 0 1-3.92-4.41q-2.26-4.93 2-8.47A99.29 99.29 0 0 0 83.26 14zm6.42 11.27q-2.52-.61-4.56 3a2.92 2.92 0 0 0 .42 3.5q.49.43-.63 1.9-1.08 1.1-1.91.33a2.89 2.89 0 0 0-3.6 0 6.43 6.43 0 0 0-2.18 2.3 2.73 2.73 0 0 0 .41 3.66 2.83 2.83 0 0 1 .72.8q.14.34-1.47 2.32a2.67 2.67 0 0 0 .07 3 6.79 6.79 0 0 0 2.1 2.26q3.41 2 5.65-1.07l3.19-3.65q1.73-1.88 2.82-1.31t-.35 3a45.9 45.9 0 0 1-8.72 9.21q-2.28 2.81-.18 5.07a4.8 4.8 0 0 0 3.68 1.92q1.54-.24 4.65-3.32a55.31 55.31 0 0 0 5.42-5.82q1.6-2 2.25-.61t-.65 3.55a47.17 47.17 0 0 1-8.69 9.27q-2.78 1.61-3.14 3.4-.17 3.2 3.33 4.88a4.42 4.42 0 0 0 1.38.13A10.41 10.41 0 0 0 92 71.86 2.83 2.83 0 0 0 93.45 69a6.09 6.09 0 0 1 2.84-4.68A15.62 15.62 0 0 1 100 62.4q2-.76 2.64.71t-1.37 2.36a20.94 20.94 0 0 0-2.66 1.33 3.67 3.67 0 0 0-1.69 2.73A7.44 7.44 0 0 0 98.73 75a4.55 4.55 0 0 0 5 1.54l8-3.3a9.93 9.93 0 0 0 1-.64q1.41-1.13-.25-2.32a10 10 0 0 1-2.32-2.8L99.74 42.13a9.08 9.08 0 0 1-.26-4.43q.76-2.34-.72-3.46l-1.08-.73a11.15 11.15 0 0 1-6.59-7.29q-.09-.48-1.41-.97zm1.74-8.13Q87.63 14 85.21 17a93.63 93.63 0 0 1-13.6 12.54q-2.68 3 .69 6.43 1.27.81 2.21-1.46a10.84 10.84 0 0 1 5-4.17 2.84 2.84 0 0 0 2.19-2.46 12.36 12.36 0 0 1 4-5.08 5.31 5.31 0 0 1 3-1.14A2.35 2.35 0 0 0 91.43 20a2.14 2.14 0 0 0-.01-2.88zM113.22 5q-3 1.85-2.42 4.75.19.86.51 1.82.89 2-.78 2.66T108 12.9a4.52 4.52 0 0 0-5-3.25 10 10 0 0 0-3.26 1.18 5.21 5.21 0 0 0-2.15 2.76 5.54 5.54 0 0 0 .35 3.41 1.92 1.92 0 0 1-1.18 2.83 5.43 5.43 0 0 0-2.05 1.47q-1.31 1.56-.39 4.77a7.8 7.8 0 0 0 1.5 2.51 4.19 4.19 0 0 0 3 1.52 12.4 12.4 0 0 0 2-.37 1.78 1.78 0 0 1 2.73 1.14 27.16 27.16 0 0 0 1.3 2.59 4.71 4.71 0 0 0 2.81 1.89 7.52 7.52 0 0 0 5.7-2.11 3.65 3.65 0 0 0 1.33-3 7 7 0 0 0-1-3.41q-.82-2 .85-2.69t2.56 1.29a7.1 7.1 0 0 0 2.12 3.27 4.56 4.56 0 0 0 3.23.63 10.3 10.3 0 0 0 3.1-1.2q3.21-2.26 2-5.59l-.49-1.2a2 2 0 0 1 1.15-2.9 4.18 4.18 0 0 0 2-2.22 6.42 6.42 0 0 0-1.21-5.79q-2-2.84-4.82-1.85a2 2 0 0 1-2.86-1.25l-.56-1.18q-1.33-2.66-4.82-2.24A6.26 6.26 0 0 0 113.22 5zm-7.81 33.28q-1.86-1.11-2.54 1a6.09 6.09 0 0 0 .18 2l9.83 23.93a4.65 4.65 0 0 0 5 3.25l2-.37 21.19-8.7q4.11-2.16 2.78-6.53l-9.64-23.46a7.86 7.86 0 0 0-2.21-2.93q-.85-.35-1.88 1.71a4.79 4.79 0 0 1-2 2.09 13.59 13.59 0 0 1-7.76 2.41 2.32 2.32 0 0 0-3.18 1.38 12 12 0 0 1-8.44 4.56 9.06 9.06 0 0 1-3.33-.38zm13 17.46q-.91-2.21 1.17-3.06a2 2 0 0 1 3 1.26q.91 2.21-1.17 3.06a2 2 0 0 1-2.97-1.3zm-4.21-11.11q-.91-2.21 1.17-3.06a2 2 0 0 1 3 1.26q.91 2.21-1.17 3.06a2 2 0 0 1-3-1.26zm10.43-4.28q-.91-2.21 1.17-3.06a2 2 0 0 1 3 1.26q.91 2.21-1.17 3.06a2 2 0 0 1-3-1.27zm4.5 11q-.91-2.21 1.17-3.06a2 2 0 0 1 3 1.26q.91 2.21-1.17 3.06a2 2 0 0 1-3-1.31z" id="Layer_5" data-name="Layer 5"/></g></svg>