<svg xmlns="http://www.w3.org/2000/svg" viewBox="0 0 112.18 104.84"><defs><style>.cls-1{fill:#fff;stroke:#fff;stroke-miterlimit:10;stroke-width:2px}</style></defs><title>4</title><g id="Слой_2" data-name="Слой 2"><g id="Layer_5" data-name="Layer 5"><path class="cls-1" d="M110.92 56.19A13.35 13.35 0 0 0 95.2 45.75l-5.51 1.11A46.4 46.4 0 0 0 72.6 25.08 46.4 46.4 0 0 0 46 17.41l-1-5.52a13.35 13.35 0 0 0-26.23 4.92l1.4 7.46A41.65 41.65 0 0 0 5.88 37C-5.35 53.64 3.13 74.42 28 91.2s47.34 16.86 58.57.2a41.66 41.66 0 0 0 6.43-18l7.44-1.5a13.36 13.36 0 0 0 10.48-15.71zm-19.4 14.74a1.37 1.37 0 0 0-1.09 1.19 39.35 39.35 0 0 1-6.1 17.75C72 108.12 48 101.35 29.56 88.94S-4.16 56.75 8.15 38.51a39.36 39.36 0 0 1 14.16-12.32 1.37 1.37 0 0 0 .7-1.46l-1.58-8.43a10.61 10.61 0 0 1 20.86-3.91l1.25 6.66a1.37 1.37 0 0 0 1.39 1.11 43.9 43.9 0 0 1 26.15 7.19A43.9 43.9 0 0 1 87.54 48.9a1.37 1.37 0 0 0 1.55.87l6.64-1.34a10.61 10.61 0 1 1 4.19 20.81z"/><path class="cls-1" d="M45.33 68.9l2.22 1.49a1.37 1.37 0 1 0 1.53-2.27L41.52 63A1.37 1.37 0 1 0 40 65.3l2.22 1.49-9.32 1.82a1.37 1.37 0 0 0 .52 2.68l9.24-1.8 1.8 9.24a1.37 1.37 0 0 0 2.68-.52zM24.58 34.24c-7.29 1.42-12.32 7.07-11.24 12.63s7.87 8.91 15.15 7.5 12.32-7.07 11.24-12.63-7.87-8.91-15.15-7.5zm1 12.19a3.57 3.57 0 1 1 5-1 3.57 3.57 0 0 1-5.03 1.01zm43.91 15.38C63.93 62.89 60.58 69.67 62 77s7.07 12.28 12.63 11.2 8.92-7.87 7.5-15.15-7.08-12.32-12.64-11.24zM70.83 77a3.57 3.57 0 1 1 5-1 3.57 3.57 0 0 1-5 1z"/></g></g></svg>