<svg xmlns="http://www.w3.org/2000/svg" viewBox="0 0 66.82 233.24"><defs><style>.cls-1{fill:none;stroke:#fff;stroke-linecap:round;stroke-linejoin:round;stroke-width:5px}</style></defs><title>5</title><g id="Слой_2" data-name="Слой 2"><path class="cls-1" d="M16 162l-7.87 59.61a5.68 5.68 0 0 1-5.61 4.65v.09l24.27 4.39v-.09a5.68 5.68 0 0 1-3.63-6.32L31 164.7a5.68 5.68 0 0 1 5.61-4.65v-.09l-24.27-4.39v.09A5.68 5.68 0 0 1 16 162zm11.53-77l-8.41 59.52a5.68 5.68 0 0 1-5.61 4.65v.09l24.27 4.39v-.09a5.68 5.68 0 0 1-3.63-6.32l8.41-59.52a5.68 5.68 0 0 1 5.61-4.65v-.09l-24.26-4.35v.09A5.68 5.68 0 0 1 27.53 85zM43.66 8.9l-13 58.7a5.68 5.68 0 0 1-5.61 4.65v.09l24.27 4.39v-.09a5.68 5.68 0 0 1-3.63-6.32l13-58.7A5.68 5.68 0 0 1 64.3 7v-.09L40 2.5v.09a5.68 5.68 0 0 1 3.66 6.31z" id="Layer_5" data-name="Layer 5"/></g></svg>