<svg xmlns="http://www.w3.org/2000/svg" viewBox="0 0 125.66 258.68"><defs><style>.cls-1{fill:none;stroke:#fff;stroke-linecap:round;stroke-linejoin:round;stroke-width:5px}</style></defs><title>6</title><g id="Слой_2" data-name="Слой 2"><path class="cls-1" d="M96.38 61l21.18-47.64a5 5 0 0 1 5.57-3.07v-.07L103.06 2.5v.07a5 5 0 0 1 2.08 6l-21.2 47.65a5 5 0 0 1-5.57 3.07v.07l20.1 7.72v-.07A5 5 0 0 1 96.38 61zM69.7 123.86l21.14-48.43a5 5 0 0 1 5.57-3.07v-.07l-20.1-7.72v.07a5 5 0 0 1 2.08 6l-21.14 48.44a5 5 0 0 1-5.57 3.07v.07l20.1 7.72v-.07a5 5 0 0 1-2.08-6.01zm-24.34 63.38l18.8-48.94a5 5 0 0 1 5.57-3.07v-.07l-20.1-7.72v.07a5 5 0 0 1 2.08 6l-18.8 48.94a5 5 0 0 1-5.57 3.07v.07l20.1 7.72v-.07a5 5 0 0 1-2.08-6zM20.54 250.1l19.66-48.4a5 5 0 0 1 5.57-3.07v-.07l-20.1-7.72v.07a5 5 0 0 1 2.08 6L8.1 245.32a5 5 0 0 1-5.57 3.07v.07l20.1 7.72v-.07a5 5 0 0 1-2.09-6.01z" id="Layer_5" data-name="Layer 5"/></g></svg>