<svg xmlns="http://www.w3.org/2000/svg" viewBox="0 0 150.57 66.47"><defs><style>.cls-1{fill:#26262a}.cls-2,.cls-3{fill:none;stroke-linecap:round;stroke-linejoin:round;stroke-width:2px}.cls-2{stroke:#fff}.cls-3{stroke:#b2f500}</style></defs><title>bg-or</title><g id="Слой_2" data-name="Слой 2"><g id="Layer_5" data-name="Layer 5"><path class="cls-1" transform="rotate(-90 75.285 33.235)" d="M42.05-42.05h66.47v150.57H42.05z"/><path class="cls-2" d="M17.6 22h3v23.5a1.85 1.85 0 0 0 3.16 1.31L44.2 26.32v17.32h-2.81a1.85 1.85 0 1 0 0 3.7H51a1.85 1.85 0 0 0 0-3.7h-3.1V21.85a1.85 1.85 0 0 0-3.16-1.31L24.26 41V22h3a1.85 1.85 0 1 0 0-3.7H17.6a1.85 1.85 0 0 0 0 3.7zM133 44.5h-3.11V22.7a1.85 1.85 0 0 0-3.16-1.31l-20.51 20.49v-19h3a1.85 1.85 0 1 0 0-3.7h-9.66a1.85 1.85 0 0 0 0 3.7h3v23.5a1.85 1.85 0 0 0 3.16 1.31l20.49-20.49v17.3h-2.81a1.85 1.85 0 1 0 0 3.7h9.6a1.85 1.85 0 0 0 0-3.7zm-41-.86h-3.12V21.85a1.85 1.85 0 0 0-3.16-1.31l-23.1 23.1h-4a1.85 1.85 0 0 0 0 3.7h9.58a1.85 1.85 0 1 0 0-3.7h-.34l17.32-17.32v17.32h-2.81a1.85 1.85 0 1 0 0 3.7H92a1.85 1.85 0 0 0 0-3.7z"/><circle class="cls-3" cx="61.35" cy="22.9" r="4.63"/></g></g></svg>