<svg xmlns="http://www.w3.org/2000/svg" viewBox="0 0 29.2 21.89"><defs><style>.cls-1{fill:#fff}</style></defs><title>cart</title><g id="Слой_2" data-name="Слой 2"><g id="Layer_5" data-name="Layer 5"><path class="cls-1" d="M2.46 11.17h24.37v1.36H2.46zm17.62-3.84h-2C18 7.12 18 2 14.56 2s-3.5 5.25-3.5 5.3H9C9 4.8 10.18 0 14.56 0s5.52 4.8 5.52 7.33z"/><path class="cls-1" d="M23.62 21.89h-18a1 1 0 0 1-1-.69L.05 7.61A1 1 0 0 1 1 6.27h27.19a1 1 0 0 1 1 1.34l-4.6 13.59a1 1 0 0 1-.97.69zm-17.31-2h16.58L26.77 8.3H2.43z"/><path class="cls-1" d="M13.88 7.33h1.36v13.54h-1.36z"/><path class="cls-1" d="M3.72 15.68h21.21v1.36H3.72z"/><path class="cls-1" d="M7.11 7.33h1.36v13.54H7.11zm13.54 0h1.36v13.54h-1.36z"/></g></g></svg>