<svg xmlns="http://www.w3.org/2000/svg" viewBox="0 0 242.69 57.77"><defs><style>.cls-1{fill:#0c080d}.cls-2{fill:#fff}.cls-3{fill:#e24025}.cls-4{fill:#c8202d}.cls-5{fill:#ed8421}.cls-6{fill:#e68a24}.cls-7{fill:#653086}.cls-8{fill:#2276b9}.cls-9{fill:#2c3684}.cls-10{fill:#04ab97}.cls-11{fill:#d22245}.cls-12{fill:#000101}.cls-13{fill:#82b841}</style></defs><title>logo</title><g id="Слой_2" data-name="Слой 2"><g id="Layer_5" data-name="Layer 5"><path class="cls-1" d="M48.78 13.37C45.57 5.85 37.49.63 29.37.13 28.11.06 26.91 0 25.75 0c-1.16 0-2.36.06-3.62.13C14 .63 5.92 5.85 2.71 13.37.1 19.48-.3 26.56.17 32.9c.59 7.78 3.72 14.95 9.5 19.54a23.65 23.65 0 0 0 15.54 5.3h1.06a23.66 23.66 0 0 0 15.54-5.3c5.78-4.59 8.91-11.76 9.5-19.54.48-6.34.07-13.42-2.54-19.53"/><path class="cls-2" d="M25.76 22.24l.89-.06c.43 0 4-.38 4.63-.29 0-.23.11-.43 0-.61-.66-.76-.77-.24-1.42-.29.13-.29.26-.27.45-.53.37-.49.08-.29-.22-.78s-.27-.3-.11-1 .61-1.32-.71-1.31a3.32 3.32 0 0 0 .37-.69c0-.06-.33-.61-.35-.47a12.14 12.14 0 0 0 .13-1.73c0-.79-.72-.46-1.53-.13a2.63 2.63 0 0 0 .24-2.35c-.33-.59-.73-.47-1.3-.32-.25.06-.17-.05-.37.07a2.72 2.72 0 0 0-.55.53c-.29.7-.44 1.11-.84 1.93-.53 1.08-1.1 2.45-1.56 3.51-.66 1.82-1.18 2.85-1.75 4.63 0 0 1.93-.56 2.05-.57-.08.13-.1.36-.17.5a15.15 15.15 0 0 1 2.13-.08"/><path class="cls-3" d="M44.9 19.42a5 5 0 0 0-4-1.76h-.15A5 5 0 0 0 37 19.82a6.34 6.34 0 0 0-1-.22 6.07 6.07 0 0 1 .68-.92 5.87 5.87 0 0 1 3.92-1.92h.15a5.86 5.86 0 0 1 3.6 1c-.12-.32-.25-.64-.39-1l-.36-.17.18-.21-.18-.38-.1-.18-.16.17a5 5 0 0 0-.31.39 6.69 6.69 0 0 0-1-.22l.07-.14a6.15 6.15 0 0 1 .6-.79L43 15l-.33-.54a6.55 6.55 0 0 0-.63.66 1.85 1.85 0 0 0-1.39-.53h-.15a1.84 1.84 0 0 0-1.18.65 6.6 6.6 0 0 0-.7-.61l.06-.07a2.78 2.78 0 0 1 1.78-.9h.15a2.77 2.77 0 0 1 2 .72c-.26-.4-.52-.79-.8-1.17A3.4 3.4 0 0 0 40.6 13h-.15a3.4 3.4 0 0 0-2.32 1.24 6.35 6.35 0 0 0-.84-.43c.09-.11.17-.22.27-.33a4.33 4.33 0 0 1 2.84-1.38h.77l-.51-.62h-.29a5 5 0 0 0-3.69 2.13 6.76 6.76 0 0 0-1-.23 6 6 0 0 1 .68-.92 5.87 5.87 0 0 1 3.44-1.86 2.53 2.53 0 0 0-.3-.52h-.41a6.68 6.68 0 0 0-.93.31c-.11-.13-.23-.25-.35-.37a5 5 0 0 0-7.17.35 4.53 4.53 0 0 0-.32.42 6.22 6.22 0 0 0-.74-.18 2.17 2.17 0 0 1 .09.65 5.87 5.87 0 0 1 3.42 2.23 6.38 6.38 0 0 0-.94.32 5 5 0 0 0-1.21-1c0 .26-.05.45.29.42s.35.33.27.82l.07.07-.1.06c-.05.27-.13.57-.19.86a5.88 5.88 0 0 1 7.38.42 6.07 6.07 0 0 1 .68.72l.09.13a6.1 6.1 0 0 0-.93.31 4.94 4.94 0 0 0-.35-.38 5 5 0 0 0-7.11.28.44.44 0 0 0 0 .07.27.27 0 0 0 0 .07c0 .13.23.22.41.33l.06-.08a4.62 4.62 0 0 1 .35-.35 4.34 4.34 0 0 1 5.36-.26 4.31 4.31 0 0 1 .39.31l.3.3a6.55 6.55 0 0 0-.8.52 3.41 3.41 0 0 0-5.06.25l-.27-.15a3.31 3.31 0 0 1 0 .73 5.7 5.7 0 0 1 1.59 1.46l-.45.13a.63.63 0 0 0 .16.23 1.06 1.06 0 0 0 .48.23 6.14 6.14 0 0 1 1.14-.17 5.89 5.89 0 0 1 4.3 1.52l.09.09h1.13a1.2 1.2 0 0 1 .65-.33h.15a1.23 1.23 0 0 1 .89.32 3.12 3.12 0 0 0 .64.05h.22c.09-.11.17-.22.27-.32A6 6 0 0 1 45 20c0-.21-.08-.42-.13-.62m-5-3.82a1.24 1.24 0 0 1 .7-.39h.15a1.23 1.23 0 0 1 .89.32l.1.1c-.1.15-.2.31-.29.47h-.82l-.48.05-.33-.45.09-.11m-8.07-4.12a6.34 6.34 0 0 0-.84-.43c.09-.11.17-.22.27-.33a4.63 4.63 0 0 1 .36-.35 4.35 4.35 0 0 1 5.36-.26 4.61 4.61 0 0 1 .39.31l.3.3a6.78 6.78 0 0 0-.8.52 3.41 3.41 0 0 0-5.06.25m1.22 1a6.8 6.8 0 0 0-.7-.61l.06-.07a2.79 2.79 0 0 1 3.94-.19l.07.06a6.66 6.66 0 0 0-.64.68 1.85 1.85 0 0 0-2.72.13m2 .88a6.21 6.21 0 0 0-.64 0c-.21 0-.43 0-.63.06-.11-.16-.23-.32-.36-.47l.09-.11a1.24 1.24 0 0 1 1.74-.09l.1.1c-.11.16-.21.33-.31.51m-1.71 5.33a6.06 6.06 0 0 0-.7-.61l.06-.07a2.79 2.79 0 0 1 3.94-.19l.07.06a6.45 6.45 0 0 0-.64.68 1.86 1.86 0 0 0-2.73.13m2 .88a6.15 6.15 0 0 0-.63 0 6 6 0 0 0-.63.06 5.75 5.75 0 0 0-.35-.47l.09-.11a1.23 1.23 0 0 1 1.74-.09l.1.1c-.11.16-.21.33-.31.51m7 1.78a1.84 1.84 0 0 0-1.31-.54h-.15a1.84 1.84 0 0 0-1.18.65 6.64 6.64 0 0 0-.7-.61l.06-.07a2.78 2.78 0 0 1 1.78-.9h.15a2.77 2.77 0 0 1 2 .72l.07.06a6.44 6.44 0 0 0-.64.68m1.12-1.08a3.4 3.4 0 0 0-2.59-1h-.15a3.4 3.4 0 0 0-2.32 1.24 6.24 6.24 0 0 0-.84-.43c.09-.11.17-.22.27-.33a4.32 4.32 0 0 1 2.85-1.41h.15A4.33 4.33 0 0 1 44 19.41a4.21 4.21 0 0 1 .3.3 6.62 6.62 0 0 0-.8.52m1.58.77a4.92 4.92 0 0 0-1.11.78h1l.2-.13v-.68"/><path class="cls-3" d="M37.07 7.83a4.5 4.5 0 0 0-.82-.42 6.67 6.67 0 0 0-.92-.21c-.18 0-.37-.06-.57-.08h-.09v.06a6.18 6.18 0 0 0-.64 0 6.07 6.07 0 0 0-.63.06c-.11-.16-.23-.32-.35-.47s-.39-.34-.38-.35a.93.93 0 0 0-.36-.1 1.91 1.91 0 0 0-.61 0l.27.22a6 6 0 0 1 .77.85 6.6 6.6 0 0 0-.94.32 5 5 0 0 0-4-1.75h-.15a4.8 4.8 0 0 0-.94.17.5.5 0 0 0-.24.32 1 1 0 0 0 0 .43 3.64 3.64 0 0 1 1.24-.29h.15a4.32 4.32 0 0 1 3.04 1.03 4.18 4.18 0 0 1 .3.3 6.61 6.61 0 0 0-.8.52 3.39 3.39 0 0 0-2.59-1h-.15a2.93 2.93 0 0 0-1.14.31c.06.2.12.4.19.6a2.31 2.31 0 0 1 1-.29h.15a2.78 2.78 0 0 1 2 .72l.07.06a6.61 6.61 0 0 0-.64.68A1.85 1.85 0 0 0 27.9 9h-.15a1.81 1.81 0 0 0-.76.28 4.47 4.47 0 0 0 .2.4 4.86 4.86 0 0 1 .58-.09 2.39 2.39 0 0 1 1 .13c.3.17.36.28.61.65a5.76 5.76 0 0 1 .62-.7 5.9 5.9 0 0 1 6.9-1.36c.08-.17.3-.42.21-.48M34.7 21.08a4.89 4.89 0 0 0-1.26.23 4.86 4.86 0 0 1 .3.52h.09a4.28 4.28 0 0 1 2.1 0h1.56a4.92 4.92 0 0 0-2.79-.7"/><path class="cls-4" d="M19.84 42.92l-.67-.92a7 7 0 0 0-1.48.65l1-.09.33.43.78-.07z"/><path class="cls-5" d="M21.5 42.79l-1-1.38-.14.08a4.94 4.94 0 0 1-.47.24l.79 1.14.78-.07z"/><path class="cls-4" d="M15.15 44.5l4.1-.36.6-1.16v-.03l-.79.07-.24.48-4.12.36-1.32 2.87.78-.07.99-2.16z"/><path class="cls-5" d="M16.14 45.88l4.12-.36 1.24-2.7v-.02l-.78.07v.01l-.92 2-4.09.36-.7 1.35.8-.07.33-.64z"/><path class="cls-4" d="M20.4 49.3l-.79-1.04-4.09.36-1.36-1.96-.78.07 1.8 2.6 4.12-.36.32.43.78-.06v-.04z"/><path class="cls-5" d="M22.05 49.18l-1.69-2.45-4.12.36-.43-.57-.8.07.92 1.21 4.1-.36 1.25 1.82.78-.07-.01-.01z"/><path class="cls-4" d="M16.12 50.17c.63.27 1.2.48 1.42.56l2.27-.2.6-1.16-.78.07-.25.48z"/><path class="cls-5" d="M19.52 51.34c.46.14.92.27 1.37.38l1.16-2.52-.78.07-.92 2z"/><path class="cls-4" d="M27.53 42.24l-.79-1-4.09.36-.67-1-.59.34.93 1.35 4.12-.36.33.43.78-.07z"/><path class="cls-5" d="M23.37 40l-.12-.16-.6.34.41.53 4.1-.36 1.26 1.81.78-.07-1.27-1.83-.9-.58z"/><path class="cls-4" d="M22.84 43.83l4.1-.36.6-1.16v-.03l-.79.07-.24.48-4.12.36-1.32 2.87.78-.07.99-2.16z"/><path class="cls-5" d="M28.41 42.2l-.92 2-4.1.37-.69 1.35.8-.07.33-.64 4.11-.36 1.25-2.7-.01-.02-.77.07z"/><path class="cls-4" d="M28.09 48.63l-.79-1.04-4.1.36-1.35-1.96-.78.07 1.8 2.6 4.11-.36.33.43.78-.07v-.03z"/><path class="cls-5" d="M23.62 47.13l4.09-.36 1.26 1.81v.01l.78-.07-.01-.01-1.69-2.45-4.12.36-.43-.57-.8.07.92 1.21z"/><path class="cls-4" d="M22.95 49.57l-1.09 2.38.69.13.86-1.86 4.1-.36.6-1.16-.78.07-.24.48z"/><path class="cls-5" d="M29 48.59l-.92 2L24 51l-.64 1.23.62.06h.12l.33-.64 4.12-.36 1.24-2.7-.78.07zm-4.93 3.66"/><path class="cls-4" d="M30.53 43.16l1.12-.1-.82-.61-.75.07-1.32 2.87.78-.07z"/><path class="cls-5" d="M31.52 44.54l1.78-.16-.41-.38-.29-.24-1.51.13-.7 1.35.8-.07z"/><path class="cls-4" d="M35.78 47.95l-.79-1.03-4.1.36-1.35-1.96-.79.07 1.81 2.6 4.11-.36.33.42v.01l.78-.07v-.04z"/><path class="cls-5" d="M37.43 47.83l-1.7-2.45h-.17c-.3.11-.68.25-.88.15l-.11-.06-3 .26-.43-.57-.8.07.92 1.21 4.1-.36 1.26 1.81.78-.07z"/><path class="cls-4" d="M31.09 49.54l4.1-.36.59-1.16v-.03l-.78.07-.25.48-4.11.36-1.33 2.87.78-.07 1-2.16z"/><path class="cls-5" d="M36.66 47.91l-.92 2-4.1.36-.7 1.35.8-.07.33-.63 3-.26c.31-.13.61-.27.91-.42l.52-.29 1-2.1z"/><path class="cls-4" d="M29.31 51.77l.18.25.76-.1-.15-.22z"/><path class="cls-5" d="M31.07 51.79l.75-.14-.07-.09-.8.07z"/><path class="cls-6" d="M6 27.36v.9a1.74 1.74 0 0 0 0-.46 2.17 2.17 0 0 0 0-.43"/><path class="cls-7" d="M7.46 23.34c-.21-.18-.49 0-.74.17a1.44 1.44 0 0 0-.61.82v.1l.25.28a1.76 1.76 0 0 1 .36.51 1.81 1.81 0 0 1 .36-.51A3.79 3.79 0 0 0 7.7 24v-.09a.84.84 0 0 1-.14-.19c0-.09-.07-.27-.14-.34"/><path class="cls-6" d="M8.75 24.2a2.83 2.83 0 0 1-.47-.05l-.05.11a5.77 5.77 0 0 1-.95 1.16 2.76 2.76 0 0 0-.56.79 2.75 2.75 0 0 0-.56-.79l-.09-.1v.72a3.17 3.17 0 0 1 .3.5 3.39 3.39 0 0 1 .32 1.21 1.48 1.48 0 0 0 0-.16h.13v.16a3.42 3.42 0 0 1 .32-1.21 4.28 4.28 0 0 1 .64-.94 5.08 5.08 0 0 0 .9-1.14 2.4 2.4 0 0 0 .13-.29"/><path class="cls-7" d="M7.7 31.54a3.67 3.67 0 0 0-.61-.75 1.79 1.79 0 0 1-.36-.51 1.78 1.78 0 0 1-.36.51l-.37.35c0 .71.1 1.41.18 2.11l.14.15a1.75 1.75 0 0 1 .36.51 1.76 1.76 0 0 1 .36-.51 3.83 3.83 0 0 0 .61-.75 1.21 1.21 0 0 0 .15-.55 1.26 1.26 0 0 0-.15-.57"/><path class="cls-6" d="M6.66 27.59v.16A3.41 3.41 0 0 1 6.34 29a3.49 3.49 0 0 1-.35.57v.72l.16-.17a2.75 2.75 0 0 0 .56-.79 2.76 2.76 0 0 0 .56.79 5.7 5.7 0 0 1 .95 1.16 1.93 1.93 0 0 1 .23.88 1.84 1.84 0 0 1-.23.84 5.75 5.75 0 0 1-.95 1.16 2.74 2.74 0 0 0-.56.79 2.21 2.21 0 0 0-.35-.54q.15 1 .37 1.92v.16a3.32 3.32 0 0 1 .32-1.21 4.18 4.18 0 0 1 .63-.94 5.15 5.15 0 0 0 .9-1.14 2.33 2.33 0 0 0 .29-1.06A2.45 2.45 0 0 0 8.63 31a5.1 5.1 0 0 0-.9-1.13 4.18 4.18 0 0 1-.61-.87 3.34 3.34 0 0 1-.32-1.21v-.16zm.46 10.06l.43 1.42a3.86 3.86 0 0 1 .68.86 1.92 1.92 0 0 1 .23.88 1.57 1.57 0 0 1-.08.49c.09.19.17.37.27.55a2.32 2.32 0 0 0 .27-1 2.43 2.43 0 0 0-.29-1.11 5 5 0 0 0-.89-1.13 4.25 4.25 0 0 1-.63-.94"/><path class="cls-6" d="M6.75 36.28l.05.21v-.21z"/><path class="cls-7" d="M10 29.08a3.85 3.85 0 0 0 .61-.75 1.21 1.21 0 0 0 .15-.55 1.26 1.26 0 0 0-.15-.57 3.85 3.85 0 0 0-.61-.75 1.74 1.74 0 0 1-.4-.46 1.84 1.84 0 0 1-.36.51 3.79 3.79 0 0 0-.61.75 1.19 1.19 0 0 0 0 1.11 3.78 3.78 0 0 0 .61.75 1.81 1.81 0 0 1 .36.51 1.71 1.71 0 0 1 .36-.51"/><path class="cls-6" d="M9.67 32v.16a3.41 3.41 0 0 1 .33-1.25 4.31 4.31 0 0 1 .63-.94 5.09 5.09 0 0 0 .9-1.14 2.31 2.31 0 0 0 .29-1.06 2.42 2.42 0 0 0-.29-1.11A3.28 3.28 0 0 0 11 26a7.92 7.92 0 0 0-.6-.55 2.43 2.43 0 0 1-.9-1.22h-.12a3.08 3.08 0 0 1-.17.42 4 4 0 0 1-.54.82 5.62 5.62 0 0 0-1 1.23 2.32 2.32 0 0 0 0 2.17 5.58 5.58 0 0 0 1 1.23 4.05 4.05 0 0 1 .54.82 3.38 3.38 0 0 1 .32 1.21v-.16zM9 29.79a5.82 5.82 0 0 1-.95-1.16 1.82 1.82 0 0 1 0-1.72A5.92 5.92 0 0 1 9 25.76a2.71 2.71 0 0 0 .6-.76 2.76 2.76 0 0 0 .56.79 5.94 5.94 0 0 1 .95 1.16 2 2 0 0 1 .23.88 1.85 1.85 0 0 1-.23.84 5.84 5.84 0 0 1-.95 1.16 2.79 2.79 0 0 0-.56.79 2.74 2.74 0 0 0-.6-.83"/><path class="cls-7" d="M10 37.77a3.85 3.85 0 0 0 .61-.75 1.2 1.2 0 0 0 .15-.55 1.26 1.26 0 0 0-.15-.57 3.85 3.85 0 0 0-.61-.75 1.74 1.74 0 0 1-.36-.51 1.84 1.84 0 0 1-.36.51 3.79 3.79 0 0 0-.61.75 1.19 1.19 0 0 0 0 1.11 3.78 3.78 0 0 0 .61.75 1.81 1.81 0 0 1 .36.51 1.71 1.71 0 0 1 .36-.51"/><path class="cls-6" d="M9.67 40.65v.16A3.4 3.4 0 0 1 10 39.6a4.31 4.31 0 0 1 .63-.94 5.09 5.09 0 0 0 .9-1.14 2.31 2.31 0 0 0 .29-1.06 2.43 2.43 0 0 0-.29-1.11 5 5 0 0 0-.89-1.13 4.3 4.3 0 0 1-.63-.94 3.41 3.41 0 0 1-.32-1.21v-.16h-.15v.16a3.38 3.38 0 0 1-.32 1.21 4 4 0 0 1-.54.82 5.62 5.62 0 0 0-1 1.23 2.32 2.32 0 0 0 0 2.17 5.53 5.53 0 0 0 1 1.23 4.05 4.05 0 0 1 .54.82 3.37 3.37 0 0 1 .32 1.21v-.16zM9 38.48a5.82 5.82 0 0 1-.95-1.16 1.82 1.82 0 0 1 0-1.72A5.92 5.92 0 0 1 9 34.45a2.71 2.71 0 0 0 .56-.79 2.76 2.76 0 0 0 .56.79 5.94 5.94 0 0 1 .95 1.16 2 2 0 0 1 .23.88 1.85 1.85 0 0 1-.23.84 5.84 5.84 0 0 1-.95 1.16 2.79 2.79 0 0 0-.56.79 2.74 2.74 0 0 0-.56-.8"/><path class="cls-7" d="M10 43.85l-.14-.17c.26.43.56.94.9 1.47a1.27 1.27 0 0 0-.15-.55 3.85 3.85 0 0 0-.61-.75"/><path class="cls-6" d="M11.79 45.18a2.42 2.42 0 0 0-.29-1.11 5 5 0 0 0-.89-1.13A4.31 4.31 0 0 1 10 42a3.42 3.42 0 0 1-.32-1.21v-.16h-.14v.16A3.46 3.46 0 0 1 9.21 42a3.23 3.23 0 0 1-.23.4c.09.15.19.29.3.43a2.09 2.09 0 0 0 .31-.5 2.73 2.73 0 0 0 .56.79 5.75 5.75 0 0 1 .95 1.16 1.92 1.92 0 0 1 .23.88 1.73 1.73 0 0 1-.14.66l.31.41a2.31 2.31 0 0 0 .29-1.07"/><path class="cls-7" d="M12.84 33.4a3.78 3.78 0 0 0 .61-.75 1.2 1.2 0 0 0 .15-.55 1.26 1.26 0 0 0-.15-.57 3.79 3.79 0 0 0-.61-.75 1.79 1.79 0 0 1-.36-.51 1.84 1.84 0 0 1-.36.51 3.79 3.79 0 0 0-.61.75 1.19 1.19 0 0 0 0 1.11 3.78 3.78 0 0 0 .61.75 1.81 1.81 0 0 1 .36.51 1.76 1.76 0 0 1 .36-.51"/><path class="cls-6" d="M12.54 36.28v.16a3.4 3.4 0 0 1 .32-1.21 4.31 4.31 0 0 1 .63-.94 5.09 5.09 0 0 0 .9-1.14 2.31 2.31 0 0 0 .29-1.06 2.42 2.42 0 0 0-.3-1.09 5 5 0 0 0-.89-1.13 4.3 4.3 0 0 1-.63-.94 3.54 3.54 0 0 1-.24-.68 2.9 2.9 0 0 0-.25-.27 3.44 3.44 0 0 1-.29 1 4 4 0 0 1-.54.82 5.58 5.58 0 0 0-1 1.23 2.32 2.32 0 0 0 0 2.17 5.53 5.53 0 0 0 1 1.23 4.05 4.05 0 0 1 .54.82 3.37 3.37 0 0 1 .32 1.21v-.16zm-.63-2.17A5.82 5.82 0 0 1 11 33a1.82 1.82 0 0 1 0-1.72 5.92 5.92 0 0 1 .95-1.16 2.71 2.71 0 0 0 .56-.79 2.76 2.76 0 0 0 .56.79 5.88 5.88 0 0 1 .93 1.12 2 2 0 0 1 .23.88A1.85 1.85 0 0 1 14 33a5.77 5.77 0 0 1-1 1.11 2.79 2.79 0 0 0-.56.79 2.74 2.74 0 0 0-.56-.79"/><path class="cls-7" d="M11.5 41.34a3.67 3.67 0 0 0 .61.75 1.79 1.79 0 0 1 .36.51 1.78 1.78 0 0 1 .36-.51l-.2-.29a5.33 5.33 0 0 1 .48-1.95l-.31-.34a1.75 1.75 0 0 1-.36-.51 1.76 1.76 0 0 1-.36.51 3.77 3.77 0 0 0-.61.75 1.17 1.17 0 0 0 0 1.11"/><path class="cls-6" d="M13.25 42.57l-.25.23a2.74 2.74 0 0 0-.56.79 2.8 2.8 0 0 0-.56-.79 5.84 5.84 0 0 1-.88-1.15 1.84 1.84 0 0 1 0-1.72 5.79 5.79 0 0 1 .95-1.16 2.81 2.81 0 0 0 .56-.79 2.76 2.76 0 0 0 .56.79l.4.43.23-.45-.18-.19a4.31 4.31 0 0 1-.63-.94 3.41 3.41 0 0 1-.32-1.21v-.16h-.13v.16a3.4 3.4 0 0 1-.32 1.21 3.94 3.94 0 0 1-.54.82 5.69 5.69 0 0 0-1 1.23 2.33 2.33 0 0 0 0 2.17 5.73 5.73 0 0 0 1 1.23 4 4 0 0 1 .54.82 3.26 3.26 0 0 1 .33 1.37h.13a3.31 3.31 0 0 1 .33-1.37 4.31 4.31 0 0 1 .59-.89l.07-.08-.3-.37M15.42 32v.16a3.37 3.37 0 0 1 .19-.88 8.54 8.54 0 0 0-.82-.65 3 3 0 0 1 .17.31 3.39 3.39 0 0 1 .32 1.21v-.16z"/><path class="cls-7" d="M14.37 37v.09c.23-.57.61-1.26.93-2l.11-.23a.94.94 0 0 1-.11-.2 1.76 1.76 0 0 1-.36.51 3.77 3.77 0 0 0-.61.75 1.17 1.17 0 0 0 0 1.11"/><path class="cls-6" d="M13.44 37.55a3.29 3.29 0 0 0 .49.69l.22-.46a2.39 2.39 0 0 1-.31-.45 1.82 1.82 0 0 1 0-1.72 5.83 5.83 0 0 1 .95-1.16 2.79 2.79 0 0 0 .56-.79 2.3 2.3 0 0 0 .4.6l.25-.51a3.1 3.1 0 0 1-.25-.43 3.38 3.38 0 0 1-.32-1.21v-.16h-.13v.16a3.41 3.41 0 0 1-.3 1.22 4.06 4.06 0 0 1-.54.82 5.53 5.53 0 0 0-1 1.23 2.32 2.32 0 0 0 0 2.17m2.92-4.97a1.41 1.41 0 0 0-.31-.85 1.7 1.7 0 0 0 0 .35 2.22 2.22 0 0 0 .23 1 2.07 2.07 0 0 0 .09-.31 1.05 1.05 0 0 0 0-.19"/><path class="cls-8" d="M42.58 24.6c-.29.5.22 1-.12 1.54a1.93 1.93 0 0 1-.53.45 1.36 1.36 0 0 0 1.22-2.17l-.08-.09a.74.74 0 0 0-.49.27m.11 4.25a2 2 0 0 1 1 1.46A2.1 2.1 0 0 0 44 29a1.27 1.27 0 0 0-.58-1 8.74 8.74 0 0 0-1.18-.6c-.31-.13-.62-.25-.93-.37l-.94.74a6.76 6.76 0 0 0 .9.41 10.41 10.41 0 0 1 1.42.67m-3.54 18.08q.77-.72 1.44-1.5a1.85 1.85 0 0 0-1.44 1.5m-1.26-5.13c.13.3.24.57.33.82.14.41.53 1.93-.35 2.51a.36.36 0 0 0-.15.19v.12c0 .45.67 1.1 1 1.45a3.85 3.85 0 0 1 .13-.63q.18-.64.32-1.28a3.12 3.12 0 0 0-1.28-3.19m6.2-16.69l.13.18c0 .05 0 .09-.07.1a.43.43 0 0 0-.32.49.55.55 0 0 0 .43.49 3.91 3.91 0 0 0 .88.07 6.59 6.59 0 0 0 .8-.12l-.14.42a.69.69 0 0 0 .26.25 11.23 11.23 0 0 0-.14-1.41 2.2 2.2 0 0 1-.74-.3 1.18 1.18 0 0 1-.49-1.34.91.91 0 0 1 .37-.5 3.09 3.09 0 0 0-1-.17A1.22 1.22 0 0 1 44 24a.49.49 0 0 1-.19.15 1.71 1.71 0 0 0 .3 1"/><path class="cls-8" d="M45.83 25c-.06-.28-.13-.56-.22-.86a.56.56 0 0 0-.09.23.7.7 0 0 0 .31.63"/><path class="cls-9" d="M39.56 30.86A1.52 1.52 0 0 0 38.34 32a1.56 1.56 0 0 0 .66 1.59.92.92 0 0 0 1.15-1.4 4.3 4.3 0 0 0-.37-.33 1 1 0 0 1 1.13.32 1 1 0 0 1 0 1.53c-.38.38-.82.71-1.23 1.06a1.65 1.65 0 0 0-.68 1.87 6.33 6.33 0 0 1 2-1.73 3.18 3.18 0 0 0 1-1.12 1.72 1.72 0 0 0 .09-1.43 2.18 2.18 0 0 0-2.56-1.49m-2.83-.23a1.94 1.94 0 0 0 1.57.28 3.61 3.61 0 0 0 .91-.46c.28-.16.54-.37.83-.52a2.21 2.21 0 0 1 1.85-.14c.43.16.84.35 1.31.55a1.55 1.55 0 0 0-.39-.77 3.14 3.14 0 0 0-2.19-1.09 3.39 3.39 0 0 0-1.26.1l-1.69 1.31-.94.74"/><path class="cls-8" d="M37 39.59c.19.53.37 1 .55 1.4.38.32.77.61 1.14.94a4.12 4.12 0 0 1 1.09 1.69 3.19 3.19 0 0 0-.37-2.47 9.92 9.92 0 0 1-.89-2.28 3.45 3.45 0 0 1 0-2 .35.35 0 0 0 0-.14c-.9.08-1.25 1.09-.88 2.5a2.35 2.35 0 0 0-.27.07.85.85 0 0 0-.38.3m4.79 2.87a7.86 7.86 0 0 0-1.37.86 1.84 1.84 0 0 0-.61 2 5.77 5.77 0 0 1 .85-.95 2.16 2.16 0 0 1 1.19-.59c-.49.46-1.11.66-1.26 1.37l.27-.06a21.58 21.58 0 0 0 2.3-3.37 8 8 0 0 1-1.41.76"/><path class="cls-9" d="M45.68 34.33a29.92 29.92 0 0 0 .32-3.19v-.23a1.52 1.52 0 0 0-.78 1.3v1.28a2.73 2.73 0 0 1-.22 1.35 2 2 0 0 0 .73-.51m-10.45-2.55c-.25.18-.53.41-.54.58a.45.45 0 0 0 0 .11 2.52 2.52 0 0 1 .75 1.22 6.19 6.19 0 0 1 .13.9 1.46 1.46 0 0 0 .34-1 2.63 2.63 0 0 0-.7-1.82m9.13 6.29l.15.14a4.84 4.84 0 0 1 .36-.47q.13-.41.23-.83a3 3 0 0 0-.42.52c-.14.22-.24.45-.36.68m.55-1.5a3.43 3.43 0 0 1 .44-.4c.11-.47.19-.94.27-1.41a1.69 1.69 0 0 0-.76 1.51 2.31 2.31 0 0 0 .05.3m-.52 2.67c.13-.3.24-.61.35-.91A3.3 3.3 0 0 0 44 40c.12-.25.23-.51.34-.77m1.47-11.62a4.35 4.35 0 0 0 .26.54v-.88l-.37-.1a2.83 2.83 0 0 0 .1.44m-9.37 6.76a1.51 1.51 0 0 0-.22-.08 3.82 3.82 0 0 1-.38 1.71c.28.86.58 1.79.88 2.7l.09.05a1 1 0 0 0 .37.1 2.19 2.19 0 0 1-.6-2.07c.2.54.15 1.08.55 1.37.11-.45.22-.92.34-1.37a2.15 2.15 0 0 0-1-2.45m7.02-3.27a.64.64 0 0 0-.76-.15.7.7 0 0 0-.37.74c0 .23.06.45.11.68a2.63 2.63 0 0 1-.25 1.94 3.21 3.21 0 0 0 1.24-1.1 4.33 4.33 0 0 0 .35-.64 3.79 3.79 0 0 1 1.94-2.14c-.88-.46-1.51-.18-2.09.85l-.18-.16"/><path class="cls-8" d="M42.33 34.91h-.54a1.17 1.17 0 0 0-.07 1.23l.4 1.17c.17-.12.08-.31.12-.47.08-.33.15-.67.26-1a.33.33 0 0 1 .46-.24.42.42 0 0 1 .2.51 1.5 1.5 0 0 1-.18.45c-.1.18-.23.35-.41.61a2.8 2.8 0 0 0 .35-.1c.4-.18.81-.37 1.2-.57s.53-.25.48-.61a.61.61 0 0 0-.62-.53.3.3 0 0 1-.08 0c-.33-1-.79-1.18-1.57-.42"/><path class="cls-9" d="M40.08 36.49a2 2 0 0 0-1.16 2.23 6.61 6.61 0 0 0 .51 1.22 7.86 7.86 0 0 1 .88 1.87 1.52 1.52 0 0 0 .29-1.28 5.26 5.26 0 0 0-.32-.92 3.86 3.86 0 0 1-.42-2 9.41 9.41 0 0 1 .23-1.07"/><path class="cls-8" d="M43 37.61a3 3 0 0 0-.49.95 2.81 2.81 0 0 1-1.16 1.75 1.92 1.92 0 0 0 1.88-.79 12.52 12.52 0 0 0 .67-1.25c.23-.45.45-.9.69-1.38a1.9 1.9 0 0 0-1.6.73"/><path class="cls-9" d="M42 40.69a6.15 6.15 0 0 0-.88.64 2.1 2.1 0 0 0-.7 1.67 4.53 4.53 0 0 1 .55-.52 11.81 11.81 0 0 1 1.22-.73 3.37 3.37 0 0 0 1.3-1 2.33 2.33 0 0 0 .41-1.41 8 8 0 0 1-1.9 1.35"/><path class="cls-8" d="M43.87 27a1.71 1.71 0 0 0-.66.12 1.82 1.82 0 0 1 .9.88c.12.2.21.41.32.61a1.69 1.69 0 0 0 1.59 1v-.76a4.25 4.25 0 0 1-.56-.74A2.09 2.09 0 0 0 43.87 27"/><path class="cls-9" d="M37.62 31.62a1.94 1.94 0 0 0-.68 1.75 2.22 2.22 0 0 0 .69 1.32 4.15 4.15 0 0 1 .52.52 3.72 3.72 0 0 1 .3.57 1.35 1.35 0 0 0 0-1.77 3.63 3.63 0 0 1-.8-1.72v-.67"/><path class="cls-8" d="M36.34 33.6a3.51 3.51 0 0 0 .21-2.46 1.79 1.79 0 0 0-.12-.28l-.82.67a4.44 4.44 0 0 1 .73 2.07M41 35.4c-.15.51-.28 1-.44 1.5a3.65 3.65 0 0 0 .07 2.83 1.27 1.27 0 0 0 .11.16c.07-.56.11-1.08.2-1.59a5.44 5.44 0 0 1 .3-.78 2.62 2.62 0 0 0 .16-1.45 1.11 1.11 0 0 0-.4-.67"/><path class="cls-9" d="M44.41 32.33c-.53.3-.54.79-.46 1.31s.14.8.21 1.2a1 1 0 0 0 .63-1.44l-.38-1.07"/><path class="cls-8" d="M41.16 38.56a2.71 2.71 0 0 0 .17 1.21c.28-.38.53-.72.76-1.07a.65.65 0 0 0-.05-.89.75.75 0 0 0-.88.75m1.13-7.84c.06-.49-.18-.77-.69-.74a2.33 2.33 0 0 0-1.28.43c.42.17.8.36 1.21.49a.7.7 0 0 0 .77-.19"/><path class="cls-10" d="M21.64 20a2 2 0 0 1-1.4.72.86.86 0 0 1-.81-.26c-.19-.21-.13-.4 0-.47s.33-.1.42 0a.32.32 0 0 0 .46.1c.14-.07.15-.3.12-.41a.69.69 0 0 0-.22-.37.36.36 0 0 0-.21-.11c.05-.2-.27-.31-.4-.33a1.59 1.59 0 0 0-.7.08 1.51 1.51 0 0 0-.39.21c-.47.36-.11.94-.11.94s-.23.21 0 .75 1.2.6 1.2.6l-.48.19a3.21 3.21 0 0 1-1.58 0 2.4 2.4 0 0 1-.95-.36s-.16.41-.09.56.3.23.64.32a5.92 5.92 0 0 0 2.65 0 2.38 2.38 0 0 0 1.3-.84 1.37 1.37 0 0 1 .28-.21 8.7 8.7 0 0 1 .31-1.2m-.4-11.86a1.26 1.26 0 0 1-.93-1.48 1.06 1.06 0 0 1 .75-.92.8.8 0 0 1 .75.18.56.56 0 0 1 0 .74.54.54 0 0 1-.64.19.53.53 0 0 0 .67.09 1 1 0 0 0 .41-.73 1.59 1.59 0 0 0 0-.52l.71-.19a2.31 2.31 0 0 1 0 1.81 1.58 1.58 0 0 1-1.68.83m2.78 6.58c.1-.21.22-.42.34-.63l-.21-.12a7 7 0 0 1-1.26-1 .86.86 0 0 0 .41 0A.66.66 0 0 0 24 12s.18 0 .33-.23a1 1 0 0 0-.17-1.13 1 1 0 0 0-.69-.24.89.89 0 0 0-.64-.47c-.47-.08-.82.45-.92.83a.72.72 0 0 0 .69.93.29.29 0 0 0 .3-.27.25.25 0 0 1 .26.22c0 .23-.1.45-.55.45a2 2 0 0 1-1.15-.64 5.89 5.89 0 0 1-.78-1.09 1.74 1.74 0 0 1-.33 0 1 1 0 0 1-.36 0s0 .14.15.38a9.62 9.62 0 0 0 .72 1.07 10.23 10.23 0 0 0 .96 1.19.73.73 0 0 1 .15.58c0 .33-.14.58-.53.61a.72.72 0 0 1-.8-.4c-.13-.29 0-.46 0-.49s.32-.17.25-.48-.33-.56-.86-.42-.63.61-.68 1.18a.89.89 0 0 0 .53 1 2.47 2.47 0 0 0 .55.07 1.2 1.2 0 0 0 .61.46 1.22 1.22 0 0 0 1.26-.19 1.81 1.81 0 0 0 .49-1.13 6.62 6.62 0 0 0 1.08.73l.22.11m-3.28 2.78a.64.64 0 0 0-.65.81c.09.59.56.69 1 .74a1.51 1.51 0 0 0 1.26-.46 1.88 1.88 0 0 0 .36-1.44 1.42 1.42 0 0 0-.78-1.13 2.28 2.28 0 0 0-1.23-.27 3.5 3.5 0 0 0-1.65.57c0 .32 1 .18.58.64a2.14 2.14 0 0 1 1.27-.21.54.54 0 0 1 .51.57c0 .25-.08.42-.21.44h-.05a.5.5 0 0 0-.38-.27m4.51-10.7a4.94 4.94 0 0 0 .16.6c-.14.12-.31.21-.47.33s-.41.35-.61.51a1.6 1.6 0 0 1 .17-.95 1.06 1.06 0 0 1 .76-.49m.39 1.51c0-.17-.13-.4-.17-.57l-.31.21c-.32.22-.6.49-.92.71-.07.05-.14 0-.15-.08a2.83 2.83 0 0 1 .2-1.5c.19-.37.57-.45.93-.53a1.81 1.81 0 0 1 .46-.87 3.55 3.55 0 0 0-.59-.13.88.88 0 0 0-.18.08.69.69 0 0 0-.31.34.53.53 0 0 0 0 .37s-.59 0-.89.81a3.93 3.93 0 0 0-.13 1.32 7 7 0 0 0 .23 1.32s1-.84 1.29-1.19.14.17 0 .48a1.07 1.07 0 0 0 .13 1.1 1.91 1.91 0 0 0 .45.42s.27-.33.46-.61c-.17-.57-.37-1.07-.52-1.68"/><path class="cls-11" d="M17.63 15.9l.27.09.2.07c0-.09.07-.35.11-.72v-.85a.41.41 0 0 1 0-.07v-.13a.41.41 0 0 0-.23.05h-.41a1.21 1.21 0 0 0-.31.08c-.23.11-.21.26-.15.49a1.58 1.58 0 0 1 0 .76l.47.12m-2.65 1.93a.42.42 0 0 0-.09.19.48.48 0 0 0 .25 0l.25-.06a2 2 0 0 0 1.08-.85 3.14 3.14 0 0 0 .58-1.45 3.07 3.07 0 0 0-.26-1.22l-.1-.29a4.35 4.35 0 0 1-.24-.8v-.2a.72.72 0 0 0-.49.33 1 1 0 0 0-.19 1.06 2.57 2.57 0 0 1 .28 1.35v.3a1.28 1.28 0 0 1-.27.82 3.26 3.26 0 0 1-.62.69l-.13.12m-1.39 2.99a2.05 2.05 0 0 0 .87 0h.05a.89.89 0 0 0 .43-.19l-.2-.35c-.16-.22-.31-.41-.45-.57l-.29-.28a1.22 1.22 0 0 0-.5-.42 1.94 1.94 0 0 1-.48.13l-.02.08a1 1 0 0 0-.25.94c.1.37.32.5.87.66"/><path class="cls-11" d="M15.27 15.73a6.53 6.53 0 0 1-.06 1.27.91.91 0 0 0 .47-.63 2.31 2.31 0 0 0-.12-1.42c-.15-.36-.36-1-.09-1.43s.32-.47.52-.56a1 1 0 0 0 .31-.23v-.52c-.22.08-1 .39-1.32.54l-.1.05c-.28.15-.51.28-.59.48a.54.54 0 0 0 .11.57 3.45 3.45 0 0 1 .84 1.88m-2.47 3.05a1.46 1.46 0 0 0 .32 0 .39.39 0 0 0 .25-.14l.18-.16a.93.93 0 0 0 .36-.41v-.09a1.36 1.36 0 0 0 .06-.73 1 1 0 0 0-.38-.68l-.1-.05c-.09 0-.13-.07-.18-.07s-.1.05-.2.18-.23.31-.26.48a.34.34 0 0 1-.2.26 1.09 1.09 0 0 1-.28 0h-.11a.39.39 0 0 0-.28.19.53.53 0 0 0-.05.67.94.94 0 0 0 .84.49M9.93 13.7l.3.05.19-.14a.58.58 0 0 1 .2-.12 1.73 1.73 0 0 1-.21-.7 1.13 1.13 0 0 1 .21-.73 1.52 1.52 0 0 1-.28-.11 1.69 1.69 0 0 1-.37-.28 2.88 2.88 0 0 0-.3 1.33 1.18 1.18 0 0 0 .25.74"/><path class="cls-11" d="M11 12.06a1.24 1.24 0 0 0-.19 1 1.19 1.19 0 0 0 .15.48 3.4 3.4 0 0 1 .39-.08 1.8 1.8 0 0 1 .34 0 1.1 1.1 0 0 1 .71.28 2.88 2.88 0 0 1 .76 1.43 1.62 1.62 0 0 1-.08.67.7.7 0 0 1 .23.09.41.41 0 0 1 .2.33.85.85 0 0 1 .55.47 2.31 2.31 0 0 0-.32-1.75h.06a3.72 3.72 0 0 1 .52 3A1.3 1.3 0 0 0 15 17a3.26 3.26 0 0 0-.4-2.33 6.29 6.29 0 0 0-2-2 7.34 7.34 0 0 1-1.15-1 1 1 0 0 0-.48.43m2.08-.2a.63.63 0 0 0 0 .74 1.18 1.18 0 0 0 .44.41l.11.07.43.27a.68.68 0 0 1 .24-.46 1.3 1.3 0 0 1 .29-.21 1.65 1.65 0 0 1-.53-.4 1.21 1.21 0 0 1-.39-.65.62.62 0 0 1 0-.26.9.9 0 0 0-.65.49"/><path class="cls-11" d="M12.68 15.41c0 .25 0 .26.12.27s.06 0 .09-.14a1.7 1.7 0 0 0-.06-.81 3.15 3.15 0 0 0-.43-.73.56.56 0 0 1-.05.23l-.11.17.25.28a1.33 1.33 0 0 1 .19.72M11 16.75h.1l.06-.05c.06-.05 0-.13-.16-.26a1.31 1.31 0 0 1-.53-.54c0-.11-.06-.17-.07-.21h-.18a.51.51 0 0 1-.19-.05 1.88 1.88 0 0 0 .31.63 1.85 1.85 0 0 0 .66.46m.44-.84v-.17a1 1 0 0 1 0-.13h-.3a1.64 1.64 0 0 0 .11.25c0 .07.11.1.17 0m-.12.4s0-.08-.09-.15l-.12-.09a1.46 1.46 0 0 1-.16-.29h-.3a.82.82 0 0 0 .16.28 1.13 1.13 0 0 0 .37.29h.1v-.06m7.95.62a1.4 1.4 0 0 1-.76-.26l-.13-.09a1.54 1.54 0 0 0-.5-.27 1.5 1.5 0 0 0-.65-.14 3.34 3.34 0 0 1-.58 1.18 2 2 0 0 1-.7.63l-.16.09a2.45 2.45 0 0 1-.51.25l.21.13a.76.76 0 0 0 .22.12l.19.06a5 5 0 0 1 .51-.52 3.72 3.72 0 0 1 1.11-.71 3.13 3.13 0 0 1 .83-.25h.84zM8.83 13.52h.25a3 3 0 0 1 .51.15 2.8 2.8 0 0 1-.13-.54 2.26 2.26 0 0 1 0-.64 1.2 1.2 0 0 0-.32-.09l-.3-.06a2.15 2.15 0 0 0 0 .55 2.69 2.69 0 0 1 0 .59m3.31 1.3a.4.4 0 0 0-.06.21 1.26 1.26 0 0 1 .15.27c0 .06 0 .12.06.17s0 .14.08.15 0 0 .07-.11a1 1 0 0 0-.29-.81.5.5 0 0 1-.05.12m-.11.4a.65.65 0 0 1-.13.15l-.09.06.09.08c.06.06.1.09.15.09a.09.09 0 0 0 .08 0 .13.13 0 0 0 0-.11 2 2 0 0 0-.11-.22m-.45 2.34s.08 0 .14-.11a.82.82 0 0 1 .38-.24h.14a.51.51 0 0 0 .32-.12.35.35 0 0 0 .13-.19 1 1 0 0 1 .09-.21 1 1 0 0 1 .26-.3c.1-.08.18-.15.17-.22s-.19-.19-.54-.3h-.27l-.36-.12a.52.52 0 0 1-.29-.18v.06a1 1 0 0 1 0 .37l-.07.22c0 .06 0 .11-.05.18v.09a1.61 1.61 0 0 1-.07.3c-.08.21-.19.6 0 .73a.16.16 0 0 0 .11 0m2.73.77h-.12a1 1 0 0 0-.41.3c.09.08.36.33.59.57a3.1 3.1 0 0 1 .43.62 2.72 2.72 0 0 0 .27.41.51.51 0 0 0 .21-.14 1 1 0 0 0 .19-.61 1.09 1.09 0 0 0-1.2-1.19M12 22.16v.11c0 .11.07.25.09.3a1.23 1.23 0 0 0 .33 0l.25-.05a1.38 1.38 0 0 0 .94-.68 1 1 0 0 0 .15-.76 1 1 0 0 0-.49-.16 1 1 0 0 1-.44-.15 1.14 1.14 0 0 1 0 .4 1.88 1.88 0 0 1-.35.64 1.8 1.8 0 0 1-.41.36"/><path class="cls-11" d="M9.94 23l.14-.1a1.74 1.74 0 0 1 .07-.58 1.3 1.3 0 0 1 .43-.56 2.57 2.57 0 0 1 .64-.4l.19-.09.62-.3.29-.13h.06v.07c0 .09-.19.22-.45.35s-.46.22-.7.36l-.11.06a1.78 1.78 0 0 0-.65.53 1.39 1.39 0 0 0-.17.7 1.6 1.6 0 0 1 .5-.22l.36-.09a2.44 2.44 0 0 0 .9-.6 1.4 1.4 0 0 0 .54-.83.73.73 0 0 0 0-.59.66.66 0 0 0-.18-.19 1.9 1.9 0 0 1-.59.39l-.3.15a1.35 1.35 0 0 1-.59.19 2.25 2.25 0 0 1-.76-.09 1.12 1.12 0 0 0-.43.47 2.86 2.86 0 0 0-.22 1 5.9 5.9 0 0 0 .07.9 1.75 1.75 0 0 1 .34-.4m-.46-1.86a1.06 1.06 0 0 1 .2-.23 5.33 5.33 0 0 1-1.11-.62.6.6 0 0 0-.66 0A2.75 2.75 0 0 0 7 22.12c.78-.56 2-.26 2.5-1m9.5-3.91a7.85 7.85 0 0 0-.82.09 2.8 2.8 0 0 0-1.3.53 5.76 5.76 0 0 0-1 .81 3.46 3.46 0 0 0 1.07 0h.11a2.06 2.06 0 0 0 1.26-.64 2.84 2.84 0 0 0 .72-.83m-2.75 3.36l-.06-.53a1.9 1.9 0 0 0-.37-.05l-.21.33-.07.11c-.21.35-.3.5-.22.81a2.91 2.91 0 0 0 .15.45h-.07a1.33 1.33 0 0 0-.44-.37 1.2 1.2 0 0 0-.74-.2H14a1.19 1.19 0 0 1 0 .45c0 .19-.07.28-.11.31a1.57 1.57 0 0 0 .69.34 1.85 1.85 0 0 0 .62.11.61.61 0 0 1 .24 0l.24.1h.12a2.2 2.2 0 0 1 .23-1.09 1 1 0 0 0 .19-.82M7.21 18.7a2.61 2.61 0 0 1 .55-.25h.16a.79.79 0 0 1 .68.23l.23.19a4.44 4.44 0 0 0 1.1.74 2 2 0 0 0 1.43.24c.35-.09.45-.25.48-.32a3.05 3.05 0 0 1-1-.17 4.21 4.21 0 0 1-1.38-.86 1.54 1.54 0 0 1-.35-.59.56.56 0 0 0-.11-.22.77.77 0 0 0-.61-.12l-.22.05h-.1a2.67 2.67 0 0 0-1 .54l.07.05a.49.49 0 0 1 0 .45m10.73 1.15a1.09 1.09 0 0 0-.19-.5 3.28 3.28 0 0 0-.41-.47 2.71 2.71 0 0 1-.58.16h-.25a2.68 2.68 0 0 1-.66-.11l.05.11a1.25 1.25 0 0 1 .12.61c.14 0 .69.11 1.21.15h.72"/><path class="cls-11" d="M7.79 19.15a3.65 3.65 0 0 1 .42.39 4.37 4.37 0 0 0 .78.67 3.84 3.84 0 0 0 1.67.57 2 2 0 0 0 .45 0 1.75 1.75 0 0 0 .62-.23h.06a1.3 1.3 0 0 0 .54-.51.74.74 0 0 0 .08-.4.27.27 0 0 0-.15 0h-.08l-.12.1a1.43 1.43 0 0 1-.66.37 1.8 1.8 0 0 1-1.18-.11 6.55 6.55 0 0 1-1.29-.77L8.67 19l-.19-.13c-.24-.18-.35-.26-.56-.23h-.16a1.6 1.6 0 0 0-.66.36.9.9 0 0 1 .7.09m-.05-2.37v.11c.08.24.15.51.18.62a.88.88 0 0 1 .35-.11h.13a1.48 1.48 0 0 1 .44 0l-.11-.7c-.05-.34-.11-.61-.12-.68a1.7 1.7 0 0 0-.75-.09 1.15 1.15 0 0 0-.59.3.84.84 0 0 1 .17.12.75.75 0 0 1 .28.43m1.18-1.11a8.59 8.59 0 0 0 .35 2 2.15 2.15 0 0 0 1.19 1.27 2.44 2.44 0 0 0 1.43.38h.08a1.83 1.83 0 0 0 .69-.27h-.53a2.73 2.73 0 0 1-.74-.14 2.42 2.42 0 0 1-1.24-1h.06l.07.07a2.32 2.32 0 0 0 1.09.68 3 3 0 0 0 .55.13 3.93 3.93 0 0 1-.35-.29.33.33 0 0 1-.08-.41.65.65 0 0 1-.29-.24.69.69 0 0 1 0-.54 3.3 3.3 0 0 1-.71-.42 2 2 0 0 1-.61-1.22 1.07 1.07 0 0 1 0-.61 1.53 1.53 0 0 1 .22-.53 1 1 0 0 0-.32-.23 2.55 2.55 0 0 0-.86-.21h-.4a.81.81 0 0 1 .14.25 5.76 5.76 0 0 1 .25 1.51"/><path class="cls-11" d="M10 15.39a.27.27 0 1 0 0-.34.24.24 0 0 0 0 .34m1.09-1.63a.22.22 0 1 0 .28.33.24.24 0 0 0 .07-.34.25.25 0 0 0-.35 0m-.5 1.3A.24.24 0 1 0 11 15a.27.27 0 0 0-.37 0m-.17-1.14a.24.24 0 0 0 0 .34.24.24 0 0 0 .34 0 .25.25 0 0 0 0-.34.24.24 0 0 0-.34 0m-.25.94a.27.27 0 1 0 0-.34.24.24 0 0 0 0 .34m1.54-1.09A.22.22 0 1 0 12 14a.24.24 0 0 0 .07-.34.25.25 0 0 0-.35 0m-.15 1.03a.3.3 0 1 0 0-.37.27.27 0 0 0 0 .37m-.34.58a.3.3 0 1 0 .08-.37.27.27 0 0 0-.08.37m-.4-.54a.3.3 0 1 0 .09-.36.27.27 0 0 0-.09.36"/><path class="cls-12" d="M27.86 31h-.06.06m2.94 1.26l-.17-.06.17.06m-.28-.12h.11-.11"/><path class="cls-2" d="M41 22.81c-.65.29-1.42 0-1.92.15a2.59 2.59 0 0 1 1.92-.15c-.89.4-.85-.34 0 0m.44 1c-.41.16.22-.13 0 0-.64.25-1.47.29-2.06.6l.47.06c-1 .67 0 .44.57.59.14-.2-1.13 1.15-.17.92-.53.86-7.18 4.73-6.77 5.27.61-.4 1.2-.84 1.82-1.24.22.33-1.42 1.37-1.49 1.43-.84.65.07 2.51.27 3.28.76 2.92 2.24 5.65 1.83 8.65a22.66 22.66 0 0 0-1.17-2.1c.11 0-.12 1.07-.12 1.11a2.29 2.29 0 0 0-.36-.32c.26.27.31.84-.2.87-.67 0-2-1.52-2.25-2.06a5.9 5.9 0 0 0-.28.56c-1-.6-4.79-4.86-6-4a19.12 19.12 0 0 0 2.67-2.35c-1.9.26-3.53 1.51-5.17 2.73-.71.53-1.53.89-2.24 1.36a7 7 0 0 1-3.13 1.38 7.69 7.69 0 0 1 1.59-1.34c-1.63-.07-2.44 1.95-4 2-1 .06-.8-.45-.5-1.25.74-1.93.76.26.81.26.37 0 .69-1 .75-1.24a.38.38 0 0 0-.07-.41c-.2-.19-.83 0-.73-.13a5.79 5.79 0 0 0 .28-.88 1.46 1.46 0 0 1 .12-.32c.27-.54.85-1.14 1.39-1.15 0-1.75-1.71 2-.34-1 .4-.88.75-1.79 1.1-2.69.1-.25 2 1.11 2.09.86-1.91-1.74-3.92-3.37-5.83-5.11.15-.19 1.61 1 1.76 1.14-.85-1.72-2.77-2.87-4.2-4.15s.15-.72.87-.81c-.68-.62-.16-.91 1.66-1 1.5 0 2-.09 3.45-.13h2.8l5.45-.13a20.11 20.11 0 0 1 3.52 0 2 2 0 0 0 0 .25 3 3 0 0 1 1.93.07c-.37.28-.12.27-.12.49a2.59 2.59 0 0 0 0 .41c.06.21.21.59.39.69.24-1.12.07-1.84 1.48-2 .79.02 3.69-.1 4.69-.12s-1.3.4-1.06.4a46.92 46.92 0 0 1 5.06.14c.14 0-.53.43-.54.43m-4.85 19c-.13-.48 0-.25-.3-.64a1.82 1.82 0 0 0 .49 1.76 7.52 7.52 0 0 0-.19-1.12M30.52 32a17.53 17.53 0 0 0-5.43-.2c-.69.06-1.4.07-2.08.13a1.74 1.74 0 0 0-.33.06l-.21-.06a.52.52 0 0 0 0 .19c-.13.15-.08.4.1.82a2.09 2.09 0 0 0 1 1.06c.56.23.7-.27 1.64-.51l.21-.06a10.74 10.74 0 0 0 1.74-.06c.14 0 .16.05.06.07a.51.51 0 0 0 .22 0c.25-.15.56.07.72-.07s.87-.06.88-.06c.81.1 1.63-1.44 2-1 0-.07-.77-.31-.45-.24m.26-7.24h-1.72v3.14l-.12.53-.09.41-.44.45-.66.06-.39-.44V27.8l-.06-1.53v-1.56l-1.79.1v1.53l-.07 2.34-.18.34-.34.28h-.49l-.59-.3-.21-.52-.11-.56.09-1.57-.1-1.51h-1.81l.06 1.52V28l-.05.14.29 1.06.51.92.74.51.9.15.92-.28.56-.54 1 .72 1 .14 1.17-.11.54-.48 1.46.62.07-1.47v-3.09z"/><path class="cls-10" d="M16.58 7.68a.92.92 0 0 0 .45-.6l-.4.16a.5.5 0 0 1-.42.14l-.4.17a.78.78 0 0 0 .81.08"/><path class="cls-10" d="M15 8.06a1.84 1.84 0 0 0 1.29.78 1.5 1.5 0 0 0 1.54-.78 2.1 2.1 0 0 0 .43-1.41L17.2 7a.54.54 0 0 1 0 .08 1 1 0 0 1-.67.82 1 1 0 0 1-1-.22L15 8v.07m2.56.69s.08 0 .36.3a2.78 2.78 0 0 1 .36.45 1.82 1.82 0 0 0 .65-.13 5.47 5.47 0 0 0 .58-.21 1.51 1.51 0 0 0-.51-.6 4.6 4.6 0 0 0-.82-.51.62.62 0 0 1-.16.3 1.79 1.79 0 0 1-.5.4"/><path class="cls-10" d="M19.92 10.2a4.23 4.23 0 0 0 1.19-.13 1.16 1.16 0 0 0 .45-.15 4.64 4.64 0 0 0-.54-1A4.51 4.51 0 0 0 19.4 7.6a5.27 5.27 0 0 0-.85-.4c-.11.31-.24.63-.24.63a3.22 3.22 0 0 1 1 .62 1.72 1.72 0 0 1 .59.77 1 1 0 0 1-.63.38 4.78 4.78 0 0 1-.75.15 1.13 1.13 0 0 1 .19.35v.17a6.52 6.52 0 0 1 1.14-.07m-1.52 2.32a4.72 4.72 0 0 0 .1-2.12 2.82 2.82 0 0 0-1.06-1.5.89.89 0 0 1-.23.18 1.81 1.81 0 0 1-.35.16 1.25 1.25 0 0 1 .6.33 1.66 1.66 0 0 1 .46 1.13 1.25 1.25 0 0 1-.08.83l-.55-.31c-.34-.18-1-.66-1-.66l-.28.5a14.39 14.39 0 0 0 1.63 1 4.5 4.5 0 0 1 .78.45"/><path class="cls-10" d="M17 10.74a5 5 0 0 1 .56.42 1.41 1.41 0 0 0-.07-.85 1.38 1.38 0 0 0-.76-.87 2.69 2.69 0 0 1-.38.92 7.39 7.39 0 0 1 .64.38m-2.57.36a1.28 1.28 0 0 0 1.47-.65 3.83 3.83 0 0 0 .52-1.22 1.21 1.21 0 0 1-.41-.07 2.12 2.12 0 0 1-.32-.16 1.51 1.51 0 0 1-.59.92.75.75 0 0 1-.68.09.26.26 0 0 1-.15-.32.46.46 0 0 0 .34.17.72.72 0 0 0 .69-.39 1.18 1.18 0 0 0 .21-.58l-.21-.06a1.22 1.22 0 0 1-.35.64c-.31.24-.48 0-.48 0a.53.53 0 0 0-.23-.49.67.67 0 0 0-1 .58 1.39 1.39 0 0 0 1.16 1.46"/><path class="cls-13" d="M49.77 25c-.4-.25-1.46-1.14-2.27-1.59.71-.58 1.59-1.51 1.94-1.83 0-.23-.08-.78-.15-1.3 0-.28-.07-.46-.09-.6v-.11c0-.17-.05-.27-.11-.51A22.22 22.22 0 0 0 45 10a19.73 19.73 0 0 0-9.64-7 22.89 22.89 0 0 0-5.13-1.23h-.16s-2-.14-2.47-.1c-.33.33-1.71 1.81-1.71 1.81l-.16.18-.16-.18S24.19 2 23.86 1.63c-.49 0-2.46.1-2.46.1h-.16A22.93 22.93 0 0 0 16.13 3a19.73 19.73 0 0 0-9.66 7 22.22 22.22 0 0 0-4 8.95c-.05.25-.08.35-.11.51v.11c0 .13-.05.31-.09.6-.08.52-.15 1.07-.15 1.3.35.32 1.23 1.25 1.94 1.83-.81.45-1.86 1.34-2.27 1.59a42.8 42.8 0 0 0 .23 10.82 28.9 28.9 0 0 0 4 9.87v.06c.32.51.69 1 1.09 1.56l.3.37.15.19.25.28c.38.41.83.87 1 1a22.11 22.11 0 0 0 2.42-.04c-.18.93 0 1.51-.13 2.44l.14.14.22.21A10.4 10.4 0 0 0 12.93 53l.16.11.1.07a19.82 19.82 0 0 0 8.3 2.82c.92.11 2.65.23 3.81.26h.92c1.16 0 2.86-.15 3.77-.25a19.81 19.81 0 0 0 8.29-2.84l.1-.07.16-.11A10.51 10.51 0 0 0 40 51.83l.22-.21.15-.14c-.12-.93 0-1.51-.14-2.44a22.14 22.14 0 0 0 2.39.13c.19-.16.63-.62 1-1l.25-.28.16-.19.3-.37c.4-.52.77-1.05 1.09-1.56v-.06a29 29 0 0 0 4-9.87A42.71 42.71 0 0 0 49.77 25m-3.1 10.8a23.73 23.73 0 0 1-4.57 10.34l-1.22 1.49-.78.77-1.23 1.15a19.72 19.72 0 0 1-2 1.5 16.58 16.58 0 0 1-8.25 2.55c-.87.06-1.88.12-2.84.12-1 0-2-.06-2.84-.12a16.58 16.58 0 0 1-8.25-2.55 20.12 20.12 0 0 1-2-1.5l-1.29-1.13-.78-.77-1.22-1.49A23.73 23.73 0 0 1 4.81 35.8a43.07 43.07 0 0 1-.4-10.8l.13-1.63.14-1.14A25 25 0 0 1 8.6 12c3.19-4.09 5.26-5.15 7.85-6.22A23.6 23.6 0 0 1 24 4.11h3.53A23.59 23.59 0 0 1 35 5.79c2.6 1.06 4.66 2.12 7.85 6.22a25 25 0 0 1 3.95 10.18l.14 1.14.13 1.67a43.07 43.07 0 0 1-.4 10.84m25.64 10.89v7.28h-2.1v-5.42h-2.73v5.42h-2.12v-7.28h6.95zm6.08 7.41a2.47 2.47 0 0 1-2.64-2.28c-.07-1.78 1.21-2.63 2.82-2.63a3.72 3.72 0 0 1 1.93.47v-.5c0-.89-1.09-1-1.81-1a4.22 4.22 0 0 0-2.1.44l-.27-1.51a6.58 6.58 0 0 1 2.73-.54c1.87 0 3.47.62 3.47 2.71v2.63c0 .62 0 1 .68.94V54c-1.1.24-2.31.18-2.31-1.12a2.75 2.75 0 0 1-2.52 1.25M80.46 51a2.75 2.75 0 0 0-1.51-.42c-.66 0-1.21.42-1.13 1.13a.91.91 0 0 0 1 .78c.7 0 1.57-.35 1.64-1.12zm13.06-4.27v7.28h-2.03v-2.87h-2.9v2.87h-2.04v-7.28h2.04v2.6h2.9v-2.6h2.03zm6.09 7.41A2.47 2.47 0 0 1 97 51.86c-.07-1.78 1.21-2.63 2.82-2.63a3.72 3.72 0 0 1 1.93.47v-.5c0-.89-1.09-1-1.81-1a4.21 4.21 0 0 0-2.1.44l-.27-1.51a6.59 6.59 0 0 1 2.73-.54c1.87 0 3.47.62 3.47 2.71v2.63c0 .62 0 1 .68.94v1.18c-1.1.24-2.31.18-2.31-1.12a2.75 2.75 0 0 1-2.52 1.25m2.05-3.18a2.75 2.75 0 0 0-1.51-.42c-.66 0-1.21.42-1.13 1.13a.91.91 0 0 0 1 .78c.7 0 1.57-.35 1.64-1.12zm5.97-3.86a6.13 6.13 0 0 1 2.75-.56c1.51 0 3 .47 3 2a1.46 1.46 0 0 1-1.13 1.49 1.93 1.93 0 0 1 1.54 1.86c0 1.69-1.63 2.26-3.3 2.26a7.42 7.42 0 0 1-3.12-.66l.11-1.68a6.91 6.91 0 0 0 2.7.66c.74 0 1.39-.2 1.39-.81s-.81-.76-1.43-.76H109v-1.43h1.06c.54 0 1.13 0 1.13-.66s-.57-.68-1.19-.68a5.92 5.92 0 0 0-2.28.48zm10.22 6.88h-.54v-7.29h2.04v3.67l4.28-3.7h.64v7.31h-2.04v-3.76l-4.38 3.77zm12.47.12a2.47 2.47 0 0 1-2.64-2.28c-.07-1.78 1.21-2.63 2.82-2.63a3.72 3.72 0 0 1 1.93.47v-.5c0-.89-1.09-1-1.81-1a4.22 4.22 0 0 0-2.1.44l-.27-1.51a6.58 6.58 0 0 1 2.73-.54c1.87 0 3.47.62 3.47 2.71v2.63c0 .62 0 1 .68.94V54c-1.1.24-2.31.18-2.31-1.12a2.75 2.75 0 0 1-2.52 1.25M132.4 51a2.75 2.75 0 0 0-1.51-.42c-.66 0-1.21.42-1.13 1.13a.91.91 0 0 0 1 .78c.7 0 1.57-.35 1.64-1.12zm7.42 2.98v-5.41h-2.14v-1.84h6.34v1.84h-2.15v5.41h-2.05zm12.47-4.62a1.54 1.54 0 0 0-1.52-1 2 2 0 0 0 0 4 1.59 1.59 0 0 0 1.56-1.13h2a3.51 3.51 0 0 1-3.62 2.94 3.69 3.69 0 0 1-3.88-3.82 3.73 3.73 0 0 1 3.89-3.83 3.46 3.46 0 0 1 3.58 2.85zm8.05.07c1.67 0 2.1-1.21 2.1-2.71h2c0 1.52-.29 2.87-1.7 3.64l2.05 3.42V54h-2.14l-1.7-3a2.19 2.19 0 0 1-.62.07h-.5V54h-2.1v-7.27h2.1v2.7zm9.81 4.71a2.47 2.47 0 0 1-2.64-2.28c-.07-1.78 1.21-2.63 2.82-2.63a3.72 3.72 0 0 1 1.93.47v-.5c0-.89-1.09-1-1.81-1a4.22 4.22 0 0 0-2.1.44l-.27-1.51a6.58 6.58 0 0 1 2.73-.54c1.87 0 3.47.62 3.47 2.71v2.63c0 .62 0 1 .68.94V54c-1.1.24-2.31.18-2.31-1.12a2.75 2.75 0 0 1-2.52 1.25m2.08-3.13a2.75 2.75 0 0 0-1.51-.42c-.66 0-1.21.42-1.13 1.13a.91.91 0 0 0 1 .78c.7 0 1.57-.35 1.64-1.12zm7.44.4a2.43 2.43 0 0 1-1.39-2.14 2.5 2.5 0 0 1 2.63-2.52h4V54h-2.13v-2.2h-1l-1.59 2.2h-2.25v-.23zm3.09-1.22v-1.85h-1.24a1 1 0 0 0-1.12 1c0 .51.42.89 1.12.89zm19.98-.75c1.67 0 2.1-1.21 2.1-2.71h2c0 1.52-.29 2.87-1.7 3.64l2.05 3.42V54H205l-1.7-3a2.19 2.19 0 0 1-.62.07h-.5V54h-2.1v-7.27h2.1v2.7zm10.63 5.28c-1 2.37-2.07 3.79-4.5 2.67l.21-1.48c1.18.51 1.81.07 2.23-1.13l.27-.75-3.18-7v-.24h2.26l1.92 4.83 1.72-4.83h2.1V47zm8.03-3.27l-.85 1.45-.79 1.12h-2.11v-.24l2.52-3.63-2.16-3.18v-.23h2.02l.65.95.69 1.23h.05l.68-1.24.63-.94h2.16v.25l-2.24 3.24 2.46 3.55v.24h-2.03l-.82-1.18-.81-1.39h-.05zm12.43-4.71v7.28h-2.04v-2.87h-2.89v2.87h-2.04v-7.28h2.04v2.6h2.89v-2.6h2.04zm3.66 4.67a2.43 2.43 0 0 1-1.39-2.14 2.5 2.5 0 0 1 2.63-2.52h4V54h-2.13v-2.2h-1L238 54h-2.25v-.23zm3.09-1.22v-1.85h-1.24a1 1 0 0 0-1.12 1c0 .51.42.89 1.12.89zM173.32 8.81a4.39 4.39 0 1 1 4.39-4.39 4.4 4.4 0 0 1-4.39 4.39m0-6.39a2 2 0 1 0 2 2 2 2 0 0 0-2-2"/><path class="cls-2" d="M210.39 17.87a12.11 12.11 0 0 0-3.94-2.62 12.35 12.35 0 0 0-4.82-.95 11.78 11.78 0 0 0-4.77 1 12.6 12.6 0 0 0-3.86 2.61 12.28 12.28 0 0 0-3.57 8.71v22.74h6.49V26.62a5.89 5.89 0 0 1 .44-2.27 5.61 5.61 0 0 1 1.23-1.85 6 6 0 0 1 1.83-1.25 5.46 5.46 0 0 1 2.25-.46 5.88 5.88 0 0 1 5.42 3.5 5.45 5.45 0 0 1 .46 2.25 5.88 5.88 0 0 1-.44 2.27 5.66 5.66 0 0 1-1.23 1.85A6.08 6.08 0 0 1 204 31.9a5.46 5.46 0 0 1-2.25.46 5.82 5.82 0 0 1-3.61-1.16v7.18a13 13 0 0 0 3.61.51 11.79 11.79 0 0 0 4.77-1 12.41 12.41 0 0 0 6.51-6.6 12.22 12.22 0 0 0 .95-4.79 11.79 11.79 0 0 0-1-4.77 12.58 12.58 0 0 0-2.64-3.89M95.6 26.67a7.57 7.57 0 0 1-.32 2.25 5.88 5.88 0 0 1-.9 1.81A4.55 4.55 0 0 1 93 31.95a3.62 3.62 0 0 1-1.83.46 3.41 3.41 0 0 1-3-1.57 7.53 7.53 0 0 1-1-4.21V14.3H80.6v12.41a7.5 7.5 0 0 1-1.11 4.12 3.43 3.43 0 0 1-3 1.57 3.84 3.84 0 0 1-1.9-.46 4.06 4.06 0 0 1-1.39-1.27 6.44 6.44 0 0 1-.86-1.85 7.91 7.91 0 0 1-.3-2.2V14.3H65.5v13.09a3.52 3.52 0 0 0 0 .58 13.65 13.65 0 0 0 1.14 4.31A12.1 12.1 0 0 0 69 35.74a10.31 10.31 0 0 0 3.36 2.32 10.64 10.64 0 0 0 4.28.84 8.51 8.51 0 0 0 3.96-.9 15.84 15.84 0 0 0 3.15-2.11A21.15 21.15 0 0 0 87.13 38a8.3 8.3 0 0 0 3.75.9 10.49 10.49 0 0 0 6.56-2.16 6 6 0 0 0 4.6 2.12V14.3H95.6zm29.56-.05a5.63 5.63 0 0 1-.46 2.27 6 6 0 0 1-1.25 1.85 5.69 5.69 0 0 1-4.08 1.67 6 6 0 0 1-2.29-.44 5.58 5.58 0 0 1-1.88-1.23 5.89 5.89 0 0 1-1.2-1.85 5.63 5.63 0 0 1-.46-2.27V14.3H107v12.32a11.85 11.85 0 0 0 1 4.82 12.37 12.37 0 0 0 11.44 7.46 11.91 11.91 0 0 0 4.72-.95 12.17 12.17 0 0 0 2.58-1.5 6 6 0 0 0 4.83 2.42V14.3h-6.44zM242.61 14.3h-6.44v12.32a5.63 5.63 0 0 1-.46 2.27 6 6 0 0 1-1.25 1.85 5.7 5.7 0 0 1-4.08 1.67 6 6 0 0 1-2.29-.44 5.56 5.56 0 0 1-1.88-1.23 6 6 0 0 1-1.21-1.85 5.66 5.66 0 0 1-.46-2.27V14.3h-6.44v12.32a11.88 11.88 0 0 0 1 4.82 12.37 12.37 0 0 0 11.44 7.46 11.91 11.91 0 0 0 4.72-.95 12.16 12.16 0 0 0 2.57-1.5 6 6 0 0 0 4.83 2.42V26.63zm-57.77 12.16a12.2 12.2 0 0 0-3.48-8.55l-.11-.1-.27-.25a12.15 12.15 0 0 0-3.34-2.27 11.76 11.76 0 0 0-3-.91 13.11 13.11 0 0 0-2.07-.16 12 12 0 0 0-8.74 3.67 13 13 0 0 0-2.59 4 12.47 12.47 0 0 0-1 4.86 12 12 0 0 0 1 4.77 12.58 12.58 0 0 0 2.62 3.93 12.14 12.14 0 0 0 3.88 2.64 11.85 11.85 0 0 0 4.75 1 13 13 0 0 0 3.65-.51v-7.31a5.89 5.89 0 0 1-5.82.7 6 6 0 0 1-1.84-1.26 5.65 5.65 0 0 1-1.24-1.87 5.9 5.9 0 0 1-.45-2.29 5.53 5.53 0 0 1 .47-2.27 6.1 6.1 0 0 1 1.26-1.85 5.69 5.69 0 0 1 1.87-1.24 6 6 0 0 1 2.29-.44 5.46 5.46 0 0 1 2.13.42 6.53 6.53 0 0 1 1.8 1.12 5.63 5.63 0 0 1 1.22 1.71 6.2 6.2 0 0 1 .63 2.08v12.81h6.38V26.63c0-.03 0 0 0 0v-.12m-34.73-8.28a5.46 5.46 0 0 1-.46 2.25 6 6 0 0 1-1.25 1.83 5.65 5.65 0 0 1-1.85 1.23 5.89 5.89 0 0 1-2.27.44h-1.11v-9.77h-6.48V38.9h6.48v-9.78h1.11a5.92 5.92 0 0 1 2.27.44 5.65 5.65 0 0 1 1.85 1.23 6 6 0 0 1 1.25 1.83 5.47 5.47 0 0 1 .46 2.25v4h6.44v-4a11.86 11.86 0 0 0-1.23-5.37 12.82 12.82 0 0 0-2-2.94 12.87 12.87 0 0 0 2-2.94 11.86 11.86 0 0 0 1.23-5.37v-4h-6.44z"/><path class="cls-13" d="M189.39 51.96h6.42v2.05h-6.42z"/></g></g></svg>