<svg xmlns="http://www.w3.org/2000/svg" viewBox="0 0 29.29 29.29"><defs><style>.cls-1{fill:#fff}</style></defs><title>share-instagram</title><g id="Слой_2" data-name="Слой 2"><g id="Layer_5" data-name="Layer 5"><circle class="cls-1" cx="14.64" cy="14.64" r="2.52"/><path class="cls-1" d="M18.84 8h-8.39A2.43 2.43 0 0 0 8 10.45v8.38a2.43 2.43 0 0 0 2.43 2.43h8.38a2.43 2.43 0 0 0 2.43-2.43v-8.38A2.43 2.43 0 0 0 18.84 8zm-4.2 11A4.36 4.36 0 1 1 19 14.64 4.36 4.36 0 0 1 14.64 19zm4.5-7.81a1 1 0 1 1 1-1 1 1 0 0 1-1 1z"/><path class="cls-1" d="M14.64 0a14.64 14.64 0 1 0 14.65 14.64A14.64 14.64 0 0 0 14.64 0zm8.46 18.84a4.27 4.27 0 0 1-4.27 4.27h-8.38a4.27 4.27 0 0 1-4.27-4.27v-8.39a4.27 4.27 0 0 1 4.27-4.27h8.38a4.27 4.27 0 0 1 4.27 4.27z"/></g></g></svg>