<svg xmlns="http://www.w3.org/2000/svg" viewBox="0 0 84.66 84.72"><defs><style>.cls-1{fill:#fff;stroke:#fff;stroke-miterlimit:10}</style></defs><title>5</title><g id="Слой_2" data-name="Слой 2"><g id="Layer_5" data-name="Layer 5"><path class="cls-1" d="M37.28 28.58c.54 1.36 1.5 3.54 2 5.17a1.67 1.67 0 0 0 1.9 1.09c.27 0 .68-.14 1.09-.14a1.72 1.72 0 0 0 1.22-.54 2.3 2.3 0 0 0 .41-1.36l-.14-1.09c-.41-2.86-1.22-8.71-.41-9.39a7.3 7.3 0 0 1 5.85-.41 8 8 0 0 1 4.35 3.81c.27 1-4.08 5.17-6.12 7.21l-.82.82a1.75 1.75 0 0 0-.54 1.36 1.43 1.43 0 0 0 .68 1.22c.27.14.41.41.68.54a2 2 0 0 0 1.22.54 2.52 2.52 0 0 0 1-.27c1.36-.82 3-1.77 4.63-2.72 8-4.63 12-7.07 12.38-9.93a3.56 3.56 0 0 0-1.09-3.13 31.78 31.78 0 0 0-13.47-8.43 30.71 30.71 0 0 0-15.78-1.5 3.39 3.39 0 0 0-2.72 1.9c-1.36 2.31.14 6.67 3.67 15.24zm-.68-13.87c0-.14.27-.14.41-.14a28.37 28.37 0 0 1 14 1.36 27.79 27.79 0 0 1 12 7.48c.14.14.27.27.27.41-.28 1.18-4.51 3.95-8.18 6.12 1.77-2.31 2.45-3.95 1.63-5.71a11 11 0 0 0-6.26-5.58 10.66 10.66 0 0 0-3.54-.54 11.6 11.6 0 0 0-4.76 1.09c-1.9 1-2.45 3-2.18 6.39-1.89-3.94-4.07-9.52-3.39-10.88z"/><path class="cls-1" d="M79.86 24a42 42 0 0 0-56-19.18 41.18 41.18 0 0 0-21.14 23.9 42.06 42.06 0 0 0 2 32 41 41 0 0 0 23.99 21.19 42.65 42.65 0 0 0 13.6 2.31A42 42 0 0 0 79.86 24zM59.18 76.88a38.68 38.68 0 0 1-29.38 1.9 37.91 37.91 0 0 1-22-19.45 38.68 38.68 0 0 1-1.9-29.38 37.91 37.91 0 0 1 19.45-22A37.4 37.4 0 0 1 42.18 4a38.43 38.43 0 0 1 17 72.92z"/><path class="cls-1" d="M33.74 45a1.52 1.52 0 0 0 1.09-1.77v-1a1.72 1.72 0 0 0-.54-1.22 2.3 2.3 0 0 0-1.36-.41c-.41 0-.82.14-1.09.14-2.86.41-8.71 1.22-9.39.41a7.3 7.3 0 0 1-.45-5.76A8 8 0 0 1 25.85 31c1-.27 5.17 4.08 7.21 6.12l.82.82a1.75 1.75 0 0 0 1.36.54 1.43 1.43 0 0 0 1.22-.68l.41-.41a1.63 1.63 0 0 0 .14-2c-.82-1.36-1.9-3.13-2.86-4.9-4.63-8-7.07-12-9.93-12.38a3.56 3.56 0 0 0-3.13 1.09 31.78 31.78 0 0 0-8.43 13.47 30.71 30.71 0 0 0-1.5 15.78 3.39 3.39 0 0 0 1.9 2.72 4.17 4.17 0 0 0 2.31.54c2.72 0 6.8-1.5 13.2-4.22A18 18 0 0 1 33.74 45zm-19.45 2.9c-.14 0-.14-.27-.14-.41a28.37 28.37 0 0 1 1.36-14 27.79 27.79 0 0 1 7.48-12c.14-.14.27-.27.41-.27 1.22.27 3.81 4.22 5.85 7.75-1.9-1.5-3.54-1.9-5-1.09a11.43 11.43 0 0 0-5.58 6.26 10.75 10.75 0 0 0 .54 8.43c.82 1.77 2.58 2.31 5.58 2.18-4.11 1.79-9.28 3.7-10.5 3.15zm57-13.9c-2.58-1.36-6.94.14-15.51 3.67h-.14c-1.5.68-3.4 1.36-4.76 1.9a1.65 1.65 0 0 0-1.09 1.77v.82a2.42 2.42 0 0 0 .54 1.36 2.3 2.3 0 0 0 1.37.48l1.09-.14c2.72-.41 9-1.22 9.39-.41a7.58 7.58 0 0 1-3.4 10.2c-1 .14-5.17-4.08-7.21-6.12l-.82-.82a1.75 1.75 0 0 0-1.36-.54 1.43 1.43 0 0 0-1.22.68l-.82.82a1.85 1.85 0 0 0-.27 2.18c.82 1.36 1.9 3.13 2.86 4.76 4.63 8 7.07 12 9.93 12.38h.54A4.09 4.09 0 0 0 63 65.86a31.78 31.78 0 0 0 8.43-13.47 30.71 30.71 0 0 0 1.5-15.78A3 3 0 0 0 71.29 34zm-2.86 17.57a27.79 27.79 0 0 1-7.48 12c-.14.14-.27.27-.41.27-1.36-.27-4.49-5.31-6.67-9.25 2.58 2.31 4.49 3.13 6.39 2.18a11.43 11.43 0 0 0 5.58-6.26 10.75 10.75 0 0 0-.54-8.43c-.82-1.77-2.58-2.31-5.44-2.18 3.95-1.63 8.71-3.26 9.79-2.72.14 0 .14.27.14.41a27 27 0 0 1-1.36 13.98zm-21.76 4.49c-.68-1.63-1.5-3.67-2-5.17a1.65 1.65 0 0 0-1.77-1.09h-.54a1.72 1.72 0 0 0-1.22.54 2 2 0 0 0-.41 1.36l.14 1.09c.41 2.72 1.22 9 .41 9.39a7.3 7.3 0 0 1-5.85.41A8 8 0 0 1 31 58.78c-.14-1 4.08-5.17 6.12-7.21l.82-.82a1.75 1.75 0 0 0 .54-1.36 1.43 1.43 0 0 0-.68-1.22 3 3 0 0 1-.68-.54 1.67 1.67 0 0 0-2-.27c-1.5 1-3.54 2.18-5.17 3-8 4.63-12 7.07-12.38 9.93a3.56 3.56 0 0 0 1.09 3.13 31.78 31.78 0 0 0 13.47 8.43 37 37 0 0 0 11.16 1.9 25.44 25.44 0 0 0 4.63-.41 3.39 3.39 0 0 0 2.72-1.9c1.36-2.58-.14-6.94-3.67-15.51zm.82 14.15c0 .14-.27.14-.41.14a28.37 28.37 0 0 1-14-1.36 27.79 27.79 0 0 1-12-7.48c-.14-.14-.27-.27-.27-.41.27-1.36 5-4.22 8.84-6.53-1.9 2.31-2.58 3.95-1.63 5.71a11 11 0 0 0 6.26 5.58 10.75 10.75 0 0 0 8.43-.54c1.5-.82 2.18-2.18 2.18-4.63 1.5 3.94 3.11 8.31 2.59 9.52z"/></g></g></svg>