<svg xmlns="http://www.w3.org/2000/svg" viewBox="0 0 158.49 160.1"><defs><style>.cls-1{fill:none;stroke:#fff;stroke-linecap:round;stroke-linejoin:round;stroke-width:5px}</style></defs><title>1</title><g id="Слой_2" data-name="Слой 2"><g id="Layer_5" data-name="Layer 5"><rect class="cls-1" x="89.1" y="9.91" width="65.15" height="65.15" rx="15" ry="15" transform="rotate(174.02 121.678 42.484)"/><path class="cls-1" d="M129.95 55a9.79 9.79 0 0 1-13.78 1.44A9.78 9.78 0 0 0 104 56.3a22.42 22.42 0 0 0 37.79-4 9.78 9.78 0 0 0-11.84 2.7zM114.1 36.57a9.79 9.79 0 0 0 13.78-1.44 9.79 9.79 0 0 1 13.78-1.44 9.94 9.94 0 0 0 .89.64 22.47 22.47 0 0 0-11.42-12.17 9.74 9.74 0 0 0-4.31 3 9.79 9.79 0 0 1-13.78 1.44 9.74 9.74 0 0 0-4.85-2.09 22.47 22.47 0 0 0-8.66 14.3 10 10 0 0 0 .77-.84 9.79 9.79 0 0 1 13.8-1.4z"/><path class="cls-1" d="M126.83 25.2a9.74 9.74 0 0 1 4.31-3 22.43 22.43 0 0 0-22.94 2.4 9.74 9.74 0 0 1 4.85 2.09 9.79 9.79 0 0 0 13.78-1.49zm-10.66 31.23A9.79 9.79 0 0 0 129.95 55a9.78 9.78 0 0 1 11.86-2.65 22.29 22.29 0 0 0 2.2-7.85 9.85 9.85 0 0 1-1.3-.88 9.79 9.79 0 0 0-13.78 1.44 9.79 9.79 0 0 1-13.78 1.44 9.79 9.79 0 0 0-13.78 1.44 9.87 9.87 0 0 1-1.11 1.15A22.28 22.28 0 0 0 104 56.3a9.78 9.78 0 0 1 12.17.13z"/><path class="cls-1" d="M115.13 46.5a9.79 9.79 0 0 0 13.78-1.44 9.79 9.79 0 0 1 13.78-1.44 9.85 9.85 0 0 0 1.3.88 22.42 22.42 0 0 0-1.45-10.17 9.94 9.94 0 0 1-.89-.64 9.79 9.79 0 0 0-13.78 1.44 9.79 9.79 0 0 1-13.78 1.44A9.79 9.79 0 0 0 100.32 38a10 10 0 0 1-.77.84 22.43 22.43 0 0 0 .7 10.24 9.87 9.87 0 0 0 1.11-1.15 9.79 9.79 0 0 1 13.77-1.43z"/><rect class="cls-1" x="44.52" y="85.32" width="65.15" height="65.15" rx="15" ry="15" transform="rotate(-140.98 77.09 117.892)"/><path class="cls-1" d="M74.1 132.59a9.79 9.79 0 0 1-10.76-8.72 9.78 9.78 0 0 0-8.5-8.69 22.42 22.42 0 0 0 29.52 23.92 9.78 9.78 0 0 0-10.26-6.51zm1.81-24.24a9.79 9.79 0 0 0 10.76 8.72 9.79 9.79 0 0 1 10.76 8.72 9.94 9.94 0 0 0 .18 1.08 22.47 22.47 0 0 0 .53-16.68 9.74 9.74 0 0 0-5.2-.89 9.79 9.79 0 0 1-10.74-8.7 9.74 9.74 0 0 0-2-4.91 22.47 22.47 0 0 0-16.23 4 10 10 0 0 0 1.14 0 9.79 9.79 0 0 1 10.8 8.66z"/><path class="cls-1" d="M93 109.32a9.74 9.74 0 0 1 5.2.89 22.43 22.43 0 0 0-17.96-14.52 9.74 9.74 0 0 1 2 4.91A9.79 9.79 0 0 0 93 109.32zm-29.66 14.55a9.79 9.79 0 0 0 10.76 8.72 9.78 9.78 0 0 1 10.26 6.52 22.29 22.29 0 0 0 7.1-4 9.85 9.85 0 0 1-.3-1.54 9.79 9.79 0 0 0-10.76-8.72 9.79 9.79 0 0 1-10.76-8.72 9.79 9.79 0 0 0-10.76-8.72 9.87 9.87 0 0 1-1.6 0 22.28 22.28 0 0 0-2.43 7.76 9.78 9.78 0 0 1 8.49 8.7z"/><path class="cls-1" d="M69.62 116.11a9.79 9.79 0 0 0 10.76 8.72 9.79 9.79 0 0 1 10.76 8.72 9.85 9.85 0 0 0 .3 1.54 22.42 22.42 0 0 0 6.17-8.21 9.94 9.94 0 0 1-.18-1.08 9.79 9.79 0 0 0-10.76-8.72 9.79 9.79 0 0 1-10.76-8.72 9.79 9.79 0 0 0-10.76-8.72 10 10 0 0 1-1.14 0 22.43 22.43 0 0 0-6.74 7.73 9.87 9.87 0 0 0 1.6 0 9.79 9.79 0 0 1 10.75 8.74z"/><rect class="cls-1" x="7.6" y="7.6" width="65.15" height="65.15" rx="15" ry="15" transform="rotate(159.15 40.176 40.175)"/><path class="cls-1" d="M51.38 50.14a9.79 9.79 0 0 1-12.94 4.93 9.78 9.78 0 0 0-11.78 3 22.42 22.42 0 0 0 35.51-13.53 9.78 9.78 0 0 0-10.79 5.6zM31.33 36.41a9.79 9.79 0 0 0 12.94-4.93 9.79 9.79 0 0 1 12.94-4.93 9.94 9.94 0 0 0 1 .39 22.47 22.47 0 0 0-14.1-8.84 9.74 9.74 0 0 0-3.39 4.05 9.79 9.79 0 0 1-12.94 4.93 9.74 9.74 0 0 0-5.22-.77 22.47 22.47 0 0 0-4.7 16 10 10 0 0 0 .53-1 9.79 9.79 0 0 1 12.94-4.9z"/><path class="cls-1" d="M40.72 22.15a9.74 9.74 0 0 1 3.39-4.05 22.43 22.43 0 0 0-21.55 8.21 9.74 9.74 0 0 1 5.22.77 9.79 9.79 0 0 0 12.94-4.93zm-2.28 32.92a9.79 9.79 0 0 0 12.94-4.93 9.78 9.78 0 0 1 10.79-5.6 22.29 22.29 0 0 0 .11-8.15 9.85 9.85 0 0 1-1.48-.52 9.79 9.79 0 0 0-12.94 4.93 9.79 9.79 0 0 1-12.94 4.93 9.79 9.79 0 0 0-12.94 4.93 9.87 9.87 0 0 1-.78 1.39 22.28 22.28 0 0 0 5.49 6 9.78 9.78 0 0 1 11.75-2.98z"/><path class="cls-1" d="M34.89 45.74a9.79 9.79 0 0 0 12.94-4.93 9.79 9.79 0 0 1 12.94-4.93 9.85 9.85 0 0 0 1.48.52 22.42 22.42 0 0 0-4-9.46 9.94 9.94 0 0 1-1-.39 9.79 9.79 0 0 0-12.94 4.93 9.79 9.79 0 0 1-12.94 4.93 9.79 9.79 0 0 0-12.94 4.93 10 10 0 0 1-.53 1 22.43 22.43 0 0 0 3.3 9.72 9.87 9.87 0 0 0 .78-1.39 9.79 9.79 0 0 1 12.91-4.93z"/></g></g></svg>