<svg xmlns="http://www.w3.org/2000/svg" viewBox="0 0 228.05 228.05"><defs><style>.cls-1{fill:none;stroke:#fff;stroke-linecap:round;stroke-linejoin:round;stroke-width:5px}</style></defs><title>4</title><g id="Слой_2" data-name="Слой 2"><g id="Layer_5" data-name="Layer 5"><path class="cls-1" d="M114.03 168.7l56.85 56.85m-49.04-64.66l56.85 56.85m-49.04-64.66l56.85 56.85m-49.04-64.66l56.85 56.85m-49.04-64.66l56.85 56.85m-49.04-64.66l56.85 56.85m-49.04-64.66l56.85 56.85m-49.04-64.66l56.85 56.85"/><path class="cls-1" transform="rotate(135 89.972 89.97)" d="M38.94 17.3H141v145.35H38.94z"/><circle class="cls-1" cx="98.81" cy="98.81" r="27.61" transform="rotate(-45 98.81 98.812)"/><path class="cls-1" d="M118.33 79.28a27.57 27.57 0 0 0-23.43-7.81l31.24 31.24a27.57 27.57 0 0 0-7.81-23.43z"/><path class="cls-1" d="M114 121.85L75.78 83.59 114 121.85a27.84 27.84 0 0 0 7.81-7.81L83.59 75.78 121.85 114a27.48 27.48 0 0 0 4.3-11.32L94.9 71.47A27.61 27.61 0 0 0 71.47 94.9l31.24 31.24a27.48 27.48 0 0 0 11.29-4.29z"/><path class="cls-1" d="M102.71 126.14L71.47 94.9a27.61 27.61 0 0 0 31.24 31.24zm16.08-46.4l16.56-16.56m-72.39 72.39l16.56-16.55"/></g></g></svg>