<svg xmlns="http://www.w3.org/2000/svg" viewBox="0 0 246.1 134.73"><defs><style>.cls-1{fill:none;stroke:#fff;stroke-linecap:round;stroke-linejoin:round;stroke-width:5px}</style></defs><title>6</title><g id="Слой_2" data-name="Слой 2"><path class="cls-1" d="M80.08 32.5L15.29 44a5.64 5.64 0 0 1-6.54-4.57 5.64 5.64 0 0 1 4.57-6.54L90.49 19.2a238.2 238.2 0 0 1 2.17 41.22l12.85-2.28a5.7 5.7 0 0 1 6.6 4.61 5.7 5.7 0 0 1-4.61 6.6L64.38 77l3 16.91 32.3-5.73 6.61 37.28a5.7 5.7 0 0 1-4.61 6.6l-.4.07a5.7 5.7 0 0 1-6.6-4.61l-4.6-25.93-62.56 11.1a5.7 5.7 0 0 1-6.6-4.61 5.7 5.7 0 0 1 4.61-6.6l29.82-5.29-3-16.9L9.2 86.9a5.7 5.7 0 0 1-6.6-4.61v-.07a5.69 5.69 0 0 1 4.61-6.6C21.28 73.12 58.4 66.53 78.44 63c1.73-.3 2.5-.77 2.45-2.69-.2-8.08-.15-11-.29-19.13-.01-1.07-.34-7.31-.52-8.68zM195.6 75.14l5.94 33.51a5.61 5.61 0 0 1-4.55 6.51l-.64.11a5.61 5.61 0 0 1-6.51-4.55l-5.93-33.43L140.5 85a5.61 5.61 0 0 1-6.5-4.56v-.08a5.61 5.61 0 0 1 4.55-6.51L237 56.4a5.61 5.61 0 0 1 6.51 4.55 5.61 5.61 0 0 1-4.51 6.5zm-14.93-49.91c-1.91 3.38-3.72 7.28-6.15 10.73C168.38 44.66 160 50.8 150.84 56c-1.6.92-4.47 2.37-6.78 3.51a6.1 6.1 0 0 1-6.62-.8l-.13-.11a6.1 6.1 0 0 1 1.41-10.24c1-.45 2-.92 3-1.42a63.68 63.68 0 0 0 25.05-21.71c5.63-8.39 4.43-20.55 4.43-20.55L184 2.5c0 2.73 0 5.28.14 7.81a4.26 4.26 0 0 0 1 2.44c11.39 12.66 25.81 18.47 42.11 19.88h.08a5.87 5.87 0 0 1 4.4 9.12l-.3.44a5.91 5.91 0 0 1-5.62 2.58c-7.59-.92-25.27-3.88-36.06-12.17-3.42-2.17-6.3-5.06-9.08-7.37z" id="Layer_5" data-name="Layer 5"/></g></svg>