<svg xmlns="http://www.w3.org/2000/svg" viewBox="0 0 204.46 134.25"><defs><style>.cls-1{fill:none;stroke:#fff;stroke-linecap:round;stroke-linejoin:round;stroke-width:5px}</style></defs><title>8</title><g id="Слой_2" data-name="Слой 2"><path class="cls-1" d="M102.23 2.5C47.15 2.5 2.5 26.7 2.5 56.55c0 15.85 12.59 30.11 32.64 40l4 35.21 25.26-25.19a175 175 0 0 0 37.83 4c55.08 0 99.73-24.2 99.73-54.05S157.31 2.5 102.23 2.5zM52.47 38.91v24.05m-8.5-20.53l17.01 17.01m-20.53-8.51H64.5m-20.53 8.51l17.01-17.01m68.51-3.52v24.05m-8.5-20.53l17 17.01m-20.53-8.51h24.05m-20.52 8.51l17-17.01m-45.8-1.4L77.86 79.09m24.84-38.06L88.37 79.09M80.09 52.9h25.01M76.17 66.05h25.01m54.45-27.19v30.69m0 10.12v.34m8.38-41.15v30.69m0 10.12v.34" id="Layer_5" data-name="Layer 5"/></g></svg>