<svg xmlns="http://www.w3.org/2000/svg" viewBox="0 0 73.56 82.85"><defs><style>.cls-1{fill:none;stroke:#fff;stroke-linecap:round;stroke-linejoin:round;stroke-width:5px}</style></defs><title>9</title><g id="Слой_2" data-name="Слой 2"><path class="cls-1" d="M65.51 46.53L63.93 45a5.39 5.39 0 0 0-7.6 0l-.75.75-.1-.1.75-.75a5.39 5.39 0 0 0 0-7.6l-1.57-1.57a5.39 5.39 0 0 0-7.6 0L69.5 13.24a5.39 5.39 0 0 0 0-7.6l-1.58-1.57a5.39 5.39 0 0 0-7.6 0L37.88 26.5a5.39 5.39 0 0 0 0-7.6l-1.57-1.57a5.39 5.39 0 0 0-7.6 0l-9.87 9.87-3.14 3.14v-18.8a5.39 5.39 0 0 0-5.37-5.37H8a5.39 5.39 0 0 0-5.37 5.37v35.55a13 13 0 0 0 0 3.66A12.8 12.8 0 0 0 6.25 58l.05.05L14.17 66l1.31 1.31 9.17 9.17.1.1.05.05a12.94 12.94 0 0 0 18.25 0L55.64 64l9.87-9.87a5.39 5.39 0 0 0 0-7.6z" id="Layer_5" data-name="Layer 5"/></g></svg>